<?xml version="1.0" encoding="utf-8"?>
<!DOCTYPE svg PUBLIC "-//W3C//DTD SVG 1.1//EN" "http://www.w3.org/Graphics/SVG/1.1/DTD/svg11.dtd">
<svg version="1.1" id="Layer_1" xmlns="http://www.w3.org/2000/svg" xmlns:xlink="http://www.w3.org/1999/xlink" x="0px" y="0px"
width="2277px" height="2277px" viewBox="0 0 2277 2277" enable-background="new 0 0 2277 2277" xml:space="preserve">
<rect x="0" y="0" width="2277" height="2277" fill="rgb(0,0,0)" /><g transform="translate(138,138)"><g transform="translate(621,0) scale(0.69,0.69)"><g transform="" style="fill: rgb(0, 225, 255);">
<g>
	<path d="M100,34.375V0H34.375C24.87,0,16.764,3.353,10.059,10.059S0,24.87,0,34.375V100h100V34.375z"/>
</g>
</g></g><g transform="translate(690,0) scale(0.69,0.69)"><g transform="" style="fill: rgb(0, 225, 255);">
<g>
	<path d="M65.625,0H0v100h65.625c9.505,0,17.611-3.354,24.316-10.059C96.646,83.236,100,75.13,100,65.625v-31.25
		c0-9.505-3.354-17.611-10.059-24.316C83.236,3.354,75.13,0,65.625,0z"/>
</g>
</g></g><g transform="translate(828,0) scale(0.69,0.69)"><g transform="" style="fill: rgb(0, 225, 255);">
<g>
	<path d="M100,34.375c0-9.505-3.354-17.611-10.059-24.316C83.236,3.354,75.13,0,65.625,0h-31.25C24.87,0,16.764,3.353,10.059,10.059
		S0,24.87,0,34.375v31.25c0,0.521,0.065,1.303,0.195,2.344H0V100h100V67.969h-0.195c0.132-1.041,0.195-1.822,0.195-2.344V34.375z"/>
</g>
</g></g><g transform="translate(966,0) scale(0.69,0.69)"><g transform="" style="fill: rgb(0, 225, 255);">
<g>
	<path d="M100,65.625c0,9.507-3.355,17.611-10.059,24.316C83.236,96.645,75.132,100,65.625,100h-31.25
		c-9.504,0-17.61-3.355-24.315-10.059C3.354,83.236,0,75.132,0,65.625v-31.25c0-9.504,3.353-17.61,10.059-24.315
		C16.766,3.354,24.871,0,34.375,0h31.25c9.508,0,17.613,3.353,24.316,10.059C96.646,16.766,100,24.871,100,34.375V65.625z"/>
</g>
</g></g><g transform="translate(1242,0) scale(0.69,0.69)"><g transform="" style="fill: rgb(0, 225, 255);">
<g>
	<path d="M100,34.375c0-9.505-3.354-17.611-10.059-24.316C83.236,3.354,75.13,0,65.625,0h-31.25C24.87,0,16.764,3.353,10.059,10.059
		S0,24.87,0,34.375v31.25c0,0.521,0.065,1.303,0.195,2.344H0V100h100V67.969h-0.195c0.132-1.041,0.195-1.822,0.195-2.344V34.375z"/>
</g>
</g></g><g transform="translate(621,69) scale(0.69,0.69)"><g transform="" style="fill: rgb(0, 225, 255);">
<rect width="100" height="100"/>
</g></g><g transform="translate(828,69) scale(0.69,0.69)"><g transform="" style="fill: rgb(0, 225, 255);">
<rect width="100" height="100"/>
</g></g><g transform="translate(1104,69) scale(0.69,0.69)"><g transform="" style="fill: rgb(0, 225, 255);">
<g>
	<path d="M100,34.375V0H34.375C24.87,0,16.764,3.353,10.059,10.059S0,24.87,0,34.375v31.25c0,9.505,3.353,17.611,10.059,24.316
		C16.765,96.646,24.87,100,34.375,100H100V34.375z"/>
</g>
</g></g><g transform="translate(1173,69) scale(0.69,0.69)"><g transform="" style="fill: rgb(0, 225, 255);">
<rect width="100" height="100"/>
</g></g><g transform="translate(1242,69) scale(0.69,0.69)"><g transform="" style="fill: rgb(0, 225, 255);">
<rect width="100" height="100"/>
</g></g><g transform="translate(1380,69) scale(0.69,0.69)"><g transform="" style="fill: rgb(0, 225, 255);">
<g>
	<path d="M100,65.625c0,9.507-3.355,17.611-10.059,24.316C83.236,96.645,75.132,100,65.625,100h-31.25
		c-9.504,0-17.61-3.355-24.315-10.059C3.354,83.236,0,75.132,0,65.625v-31.25c0-9.504,3.353-17.61,10.059-24.315
		C16.766,3.354,24.871,0,34.375,0h31.25c9.508,0,17.613,3.353,24.316,10.059C96.646,16.766,100,24.871,100,34.375V65.625z"/>
</g>
</g></g><g transform="translate(621,138) scale(0.69,0.69)"><g transform="" style="fill: rgb(0, 225, 255);">
<rect width="100" height="100"/>
</g></g><g transform="translate(759,138) scale(0.69,0.69)"><g transform="" style="fill: rgb(0, 225, 255);">
<g>
	<path d="M100,34.375V0H34.375C24.87,0,16.764,3.353,10.059,10.059S0,24.87,0,34.375V100h100V34.375z"/>
</g>
</g></g><g transform="translate(828,138) scale(0.69,0.69)"><g transform="" style="fill: rgb(0, 225, 255);">
<rect width="100" height="100"/>
</g></g><g transform="translate(966,138) scale(0.69,0.69)"><g transform="" style="fill: rgb(0, 225, 255);">
<g>
	<path d="M100,34.375V0H34.375C24.87,0,16.764,3.353,10.059,10.059S0,24.87,0,34.375v31.25c0,9.505,3.353,17.611,10.059,24.316
		C16.765,96.646,24.87,100,34.375,100H100V34.375z"/>
</g>
</g></g><g transform="translate(1035,138) scale(0.69,0.69)"><g transform="" style="fill: rgb(0, 225, 255);">
<g>
	<path d="M65.625,0H0v100h65.625c9.505,0,17.611-3.354,24.316-10.059C96.646,83.236,100,75.13,100,65.625v-31.25
		c0-9.505-3.354-17.611-10.059-24.316C83.236,3.354,75.13,0,65.625,0z"/>
</g>
</g></g><g transform="translate(1173,138) scale(0.69,0.69)"><g transform="" style="fill: rgb(0, 225, 255);">
<rect width="100" height="100"/>
</g></g><g transform="translate(1242,138) scale(0.69,0.69)"><g transform="" style="fill: rgb(0, 225, 255);">
<rect width="100" height="100"/>
</g></g><g transform="translate(621,207) scale(0.69,0.69)"><g transform="" style="fill: rgb(0, 225, 255);">
<g>
	<path d="M99.805,32.031H100V0H0v32.031h0.195C0.065,33.073,0,33.854,0,34.375v31.25c0,9.505,3.353,17.611,10.059,24.316
		C16.765,96.646,24.87,100,34.375,100h31.25c9.505,0,17.611-3.354,24.316-10.059C96.646,83.236,100,75.13,100,65.625v-31.25
		C100,33.854,99.937,33.073,99.805,32.031z"/>
</g>
</g></g><g transform="translate(759,207) scale(0.69,0.69)"><g transform="" style="fill: rgb(0, 225, 255);">
<g>
	<path d="M100,0H0v65.625c0,9.505,3.353,17.611,10.059,24.316C16.765,96.646,24.87,100,34.375,100H100V0z"/>
</g>
</g></g><g transform="translate(828,207) scale(0.69,0.69)"><g transform="" style="fill: rgb(0, 225, 255);">
<rect width="100" height="100"/>
</g></g><g transform="translate(897,207) scale(0.69,0.69)"><g transform="" style="fill: rgb(0, 225, 255);">
<g>
	<path d="M65.625,0H0v100h65.625c9.505,0,17.611-3.354,24.316-10.059C96.646,83.236,100,75.13,100,65.625v-31.25
		c0-9.505-3.354-17.611-10.059-24.316C83.236,3.354,75.13,0,65.625,0z"/>
</g>
</g></g><g transform="translate(1104,207) scale(0.69,0.69)"><g transform="" style="fill: rgb(0, 225, 255);">
<g>
	<path d="M100,34.375V0H34.375C24.87,0,16.764,3.353,10.059,10.059S0,24.87,0,34.375v31.25c0,9.505,3.353,17.611,10.059,24.316
		C16.765,96.646,24.87,100,34.375,100H100V34.375z"/>
</g>
</g></g><g transform="translate(1173,207) scale(0.69,0.69)"><g transform="" style="fill: rgb(0, 225, 255);">
<rect width="100" height="100"/>
</g></g><g transform="translate(1242,207) scale(0.69,0.69)"><g transform="" style="fill: rgb(0, 225, 255);">
<rect width="100" height="100"/>
</g></g><g transform="translate(1311,207) scale(0.69,0.69)"><g transform="" style="fill: rgb(0, 225, 255);">
<g>
	<path d="M65.625,0H0v100h65.625c9.505,0,17.611-3.354,24.316-10.059C96.646,83.236,100,75.13,100,65.625v-31.25
		c0-9.505-3.354-17.611-10.059-24.316C83.236,3.354,75.13,0,65.625,0z"/>
</g>
</g></g><g transform="translate(1242,276) scale(0.69,0.69)"><g transform="" style="fill: rgb(0, 225, 255);">
<rect width="100" height="100"/>
</g></g><g transform="translate(552,345) scale(0.69,0.69)"><g transform="" style="fill: rgb(0, 225, 255);">
<g>
	<path d="M100,34.375c0-9.505-3.354-17.611-10.059-24.316C83.236,3.354,75.13,0,65.625,0h-31.25C24.87,0,16.764,3.353,10.059,10.059
		S0,24.87,0,34.375v31.25c0,0.521,0.065,1.303,0.195,2.344H0V100h100V67.969h-0.195c0.132-1.041,0.195-1.822,0.195-2.344V34.375z"/>
</g>
</g></g><g transform="translate(828,345) scale(0.69,0.69)"><g transform="" style="fill: rgb(0, 225, 255);">
<g>
	<path d="M100,34.375c0-9.505-3.354-17.611-10.059-24.316C83.236,3.354,75.13,0,65.625,0h-31.25C24.87,0,16.764,3.353,10.059,10.059
		S0,24.87,0,34.375v31.25c0,0.521,0.065,1.303,0.195,2.344H0V100h100V67.969h-0.195c0.132-1.041,0.195-1.822,0.195-2.344V34.375z"/>
</g>
</g></g><g transform="translate(1035,345) scale(0.69,0.69)"><g transform="" style="fill: rgb(0, 225, 255);">
<g>
	<path d="M100,34.375V0H34.375C24.87,0,16.764,3.353,10.059,10.059S0,24.87,0,34.375v31.25c0,9.505,3.353,17.611,10.059,24.316
		C16.765,96.646,24.87,100,34.375,100H100V34.375z"/>
</g>
</g></g><g transform="translate(1104,345) scale(0.69,0.69)"><g transform="" style="fill: rgb(0, 225, 255);">
<rect width="100" height="100"/>
</g></g><g transform="translate(1173,345) scale(0.69,0.69)"><g transform="" style="fill: rgb(0, 225, 255);">
<rect width="100" height="100"/>
</g></g><g transform="translate(1242,345) scale(0.69,0.69)"><g transform="" style="fill: rgb(0, 225, 255);">
<rect width="100" height="100"/>
</g></g><g transform="translate(1311,345) scale(0.69,0.69)"><g transform="" style="fill: rgb(0, 225, 255);">
<g>
	<path d="M65.625,0H0v100h65.625c9.505,0,17.611-3.354,24.316-10.059C96.646,83.236,100,75.13,100,65.625v-31.25
		c0-9.505-3.354-17.611-10.059-24.316C83.236,3.354,75.13,0,65.625,0z"/>
</g>
</g></g><g transform="translate(552,414) scale(0.69,0.69)"><g transform="" style="fill: rgb(0, 225, 255);">
<g>
	<path d="M99.805,32.031H100V0H0v32.031h0.195C0.065,33.073,0,33.854,0,34.375v31.25c0,9.505,3.353,17.611,10.059,24.316
		C16.765,96.646,24.87,100,34.375,100h31.25c9.505,0,17.611-3.354,24.316-10.059C96.646,83.236,100,75.13,100,65.625v-31.25
		C100,33.854,99.937,33.073,99.805,32.031z"/>
</g>
</g></g><g transform="translate(690,414) scale(0.69,0.69)"><g transform="" style="fill: rgb(0, 225, 255);">
<g>
	<path d="M100,34.375c0-9.505-3.354-17.611-10.059-24.316C83.236,3.354,75.13,0,65.625,0h-31.25C24.87,0,16.764,3.353,10.059,10.059
		S0,24.87,0,34.375v31.25c0,0.521,0.065,1.303,0.195,2.344H0V100h100V67.969h-0.195c0.132-1.041,0.195-1.822,0.195-2.344V34.375z"/>
</g>
</g></g><g transform="translate(828,414) scale(0.69,0.69)"><g transform="" style="fill: rgb(0, 225, 255);">
<rect width="100" height="100"/>
</g></g><g transform="translate(966,414) scale(0.69,0.69)"><g transform="" style="fill: rgb(0, 225, 255);">
<g>
	<path d="M100,65.625c0,9.507-3.355,17.611-10.059,24.316C83.236,96.645,75.132,100,65.625,100h-31.25
		c-9.504,0-17.61-3.355-24.315-10.059C3.354,83.236,0,75.132,0,65.625v-31.25c0-9.504,3.353-17.61,10.059-24.315
		C16.766,3.354,24.871,0,34.375,0h31.25c9.508,0,17.613,3.353,24.316,10.059C96.646,16.766,100,24.871,100,34.375V65.625z"/>
</g>
</g></g><g transform="translate(1104,414) scale(0.69,0.69)"><g transform="" style="fill: rgb(0, 225, 255);">
<rect width="100" height="100"/>
</g></g><g transform="translate(1242,414) scale(0.69,0.69)"><g transform="" style="fill: rgb(0, 225, 255);">
<g>
	<path d="M99.805,32.031H100V0H0v32.031h0.195C0.065,33.073,0,33.854,0,34.375v31.25c0,9.505,3.353,17.611,10.059,24.316
		C16.765,96.646,24.87,100,34.375,100h31.25c9.505,0,17.611-3.354,24.316-10.059C96.646,83.236,100,75.13,100,65.625v-31.25
		C100,33.854,99.937,33.073,99.805,32.031z"/>
</g>
</g></g><g transform="translate(1380,414) scale(0.69,0.69)"><g transform="" style="fill: rgb(0, 225, 255);">
<g>
	<path d="M100,34.375c0-9.505-3.354-17.611-10.059-24.316C83.236,3.354,75.13,0,65.625,0h-31.25C24.87,0,16.764,3.353,10.059,10.059
		S0,24.87,0,34.375v31.25c0,0.521,0.065,1.303,0.195,2.344H0V100h100V67.969h-0.195c0.132-1.041,0.195-1.822,0.195-2.344V34.375z"/>
</g>
</g></g><g transform="translate(621,483) scale(0.69,0.69)"><g transform="" style="fill: rgb(0, 225, 255);">
<g>
	<path d="M100,34.375V0H34.375C24.87,0,16.764,3.353,10.059,10.059S0,24.87,0,34.375v31.25c0,9.505,3.353,17.611,10.059,24.316
		C16.765,96.646,24.87,100,34.375,100H100V34.375z"/>
</g>
</g></g><g transform="translate(690,483) scale(0.69,0.69)"><g transform="" style="fill: rgb(0, 225, 255);">
<g>
	<path d="M100,0H0v100h65.625c9.505,0,17.611-3.354,24.316-10.059C96.646,83.236,100,75.13,100,65.625V0z"/>
</g>
</g></g><g transform="translate(828,483) scale(0.69,0.69)"><g transform="" style="fill: rgb(0, 225, 255);">
<rect width="100" height="100"/>
</g></g><g transform="translate(897,483) scale(0.69,0.69)"><g transform="" style="fill: rgb(0, 225, 255);">
<g>
	<path d="M65.625,0H0v100h65.625c9.505,0,17.611-3.354,24.316-10.059C96.646,83.236,100,75.13,100,65.625v-31.25
		c0-9.505-3.354-17.611-10.059-24.316C83.236,3.354,75.13,0,65.625,0z"/>
</g>
</g></g><g transform="translate(1035,483) scale(0.69,0.69)"><g transform="" style="fill: rgb(0, 225, 255);">
<g>
	<path d="M100,34.375V0H34.375C24.87,0,16.764,3.353,10.059,10.059S0,24.87,0,34.375v31.25c0,9.505,3.353,17.611,10.059,24.316
		C16.765,96.646,24.87,100,34.375,100H100V34.375z"/>
</g>
</g></g><g transform="translate(1104,483) scale(0.69,0.69)"><g transform="" style="fill: rgb(0, 225, 255);">
<rect width="100" height="100"/>
</g></g><g transform="translate(1173,483) scale(0.69,0.69)"><g transform="" style="fill: rgb(0, 225, 255);">
<g>
	<path d="M65.625,0H0v100h65.625c9.505,0,17.611-3.354,24.316-10.059C96.646,83.236,100,75.13,100,65.625v-31.25
		c0-9.505-3.354-17.611-10.059-24.316C83.236,3.354,75.13,0,65.625,0z"/>
</g>
</g></g><g transform="translate(1380,483) scale(0.69,0.69)"><g transform="" style="fill: rgb(0, 225, 255);">
<rect width="100" height="100"/>
</g></g><g transform="translate(0,552) scale(0.69,0.69)"><g transform="" style="fill: rgb(0, 225, 255);">
<g>
	<path d="M100,34.375c0-9.505-3.354-17.611-10.059-24.316C83.236,3.354,75.13,0,65.625,0h-31.25C24.87,0,16.764,3.353,10.059,10.059
		S0,24.87,0,34.375v31.25c0,0.521,0.065,1.303,0.195,2.344H0V100h100V67.969h-0.195c0.132-1.041,0.195-1.822,0.195-2.344V34.375z"/>
</g>
</g></g><g transform="translate(207,552) scale(0.69,0.69)"><g transform="" style="fill: rgb(0, 225, 255);">
<g>
	<path d="M100,65.625c0,9.507-3.355,17.611-10.059,24.316C83.236,96.645,75.132,100,65.625,100h-31.25
		c-9.504,0-17.61-3.355-24.315-10.059C3.354,83.236,0,75.132,0,65.625v-31.25c0-9.504,3.353-17.61,10.059-24.315
		C16.766,3.354,24.871,0,34.375,0h31.25c9.508,0,17.613,3.353,24.316,10.059C96.646,16.766,100,24.871,100,34.375V65.625z"/>
</g>
</g></g><g transform="translate(345,552) scale(0.69,0.69)"><g transform="" style="fill: rgb(0, 225, 255);">
<g>
	<path d="M100,34.375V0H34.375C24.87,0,16.764,3.353,10.059,10.059S0,24.87,0,34.375V100h100V34.375z"/>
</g>
</g></g><g transform="translate(414,552) scale(0.69,0.69)"><g transform="" style="fill: rgb(0, 225, 255);">
<g>
	<path d="M65.625,0H0v100h65.625c9.505,0,17.611-3.354,24.316-10.059C96.646,83.236,100,75.13,100,65.625v-31.25
		c0-9.505-3.354-17.611-10.059-24.316C83.236,3.354,75.13,0,65.625,0z"/>
</g>
</g></g><g transform="translate(552,552) scale(0.69,0.69)"><g transform="" style="fill: rgb(0, 225, 255);">
<g>
	<path d="M100,34.375c0-9.505-3.354-17.611-10.059-24.316C83.236,3.354,75.13,0,65.625,0h-31.25C24.87,0,16.764,3.353,10.059,10.059
		S0,24.87,0,34.375v31.25c0,0.521,0.065,1.303,0.195,2.344H0V100h100V67.969h-0.195c0.132-1.041,0.195-1.822,0.195-2.344V34.375z"/>
</g>
</g></g><g transform="translate(828,552) scale(0.69,0.69)"><g transform="" style="fill: rgb(0, 225, 255);">
<rect width="100" height="100"/>
</g></g><g transform="translate(966,552) scale(0.69,0.69)"><g transform="" style="fill: rgb(0, 225, 255);">
<g>
	<path d="M100,65.625c0,9.507-3.355,17.611-10.059,24.316C83.236,96.645,75.132,100,65.625,100h-31.25
		c-9.504,0-17.61-3.355-24.315-10.059C3.354,83.236,0,75.132,0,65.625v-31.25c0-9.504,3.353-17.61,10.059-24.315
		C16.766,3.354,24.871,0,34.375,0h31.25c9.508,0,17.613,3.353,24.316,10.059C96.646,16.766,100,24.871,100,34.375V65.625z"/>
</g>
</g></g><g transform="translate(1104,552) scale(0.69,0.69)"><g transform="" style="fill: rgb(0, 225, 255);">
<rect width="100" height="100"/>
</g></g><g transform="translate(1380,552) scale(0.69,0.69)"><g transform="" style="fill: rgb(0, 225, 255);">
<rect width="100" height="100"/>
</g></g><g transform="translate(1449,552) scale(0.69,0.69)"><g transform="" style="fill: rgb(0, 225, 255);">
<g>
	<path d="M100,34.375c0-9.505-3.354-17.611-10.059-24.316C83.236,3.354,75.13,0,65.625,0H0v100h100V34.375z"/>
</g>
</g></g><g transform="translate(1587,552) scale(0.69,0.69)"><g transform="" style="fill: rgb(0, 225, 255);">
<g>
	<path d="M100,65.625c0,9.507-3.355,17.611-10.059,24.316C83.236,96.645,75.132,100,65.625,100h-31.25
		c-9.504,0-17.61-3.355-24.315-10.059C3.354,83.236,0,75.132,0,65.625v-31.25c0-9.504,3.353-17.61,10.059-24.315
		C16.766,3.354,24.871,0,34.375,0h31.25c9.508,0,17.613,3.353,24.316,10.059C96.646,16.766,100,24.871,100,34.375V65.625z"/>
</g>
</g></g><g transform="translate(0,621) scale(0.69,0.69)"><g transform="" style="fill: rgb(0, 225, 255);">
<rect width="100" height="100"/>
</g></g><g transform="translate(276,621) scale(0.69,0.69)"><g transform="" style="fill: rgb(0, 225, 255);">
<g>
	<path d="M100,34.375V0H34.375C24.87,0,16.764,3.353,10.059,10.059S0,24.87,0,34.375v31.25c0,9.505,3.353,17.611,10.059,24.316
		C16.765,96.646,24.87,100,34.375,100H100V34.375z"/>
</g>
</g></g><g transform="translate(345,621) scale(0.69,0.69)"><g transform="" style="fill: rgb(0, 225, 255);">
<rect width="100" height="100"/>
</g></g><g transform="translate(483,621) scale(0.69,0.69)"><g transform="" style="fill: rgb(0, 225, 255);">
<g>
	<path d="M100,34.375V0H34.375C24.87,0,16.764,3.353,10.059,10.059S0,24.87,0,34.375v31.25c0,9.505,3.353,17.611,10.059,24.316
		C16.765,96.646,24.87,100,34.375,100H100V34.375z"/>
</g>
</g></g><g transform="translate(552,621) scale(0.69,0.69)"><g transform="" style="fill: rgb(0, 225, 255);">
<rect width="100" height="100"/>
</g></g><g transform="translate(621,621) scale(0.69,0.69)"><g transform="" style="fill: rgb(0, 225, 255);">
<g>
	<path d="M65.625,0H0v100h65.625c9.505,0,17.611-3.354,24.316-10.059C96.646,83.236,100,75.13,100,65.625v-31.25
		c0-9.505-3.354-17.611-10.059-24.316C83.236,3.354,75.13,0,65.625,0z"/>
</g>
</g></g><g transform="translate(759,621) scale(0.69,0.69)"><g transform="" style="fill: rgb(0, 225, 255);">
<g>
	<path d="M100,34.375V0H34.375C24.87,0,16.764,3.353,10.059,10.059S0,24.87,0,34.375v31.25c0,9.505,3.353,17.611,10.059,24.316
		C16.765,96.646,24.87,100,34.375,100H100V34.375z"/>
</g>
</g></g><g transform="translate(828,621) scale(0.69,0.69)"><g transform="" style="fill: rgb(0, 225, 255);">
<rect width="100" height="100"/>
</g></g><g transform="translate(897,621) scale(0.69,0.69)"><g transform="" style="fill: rgb(0, 225, 255);">
<g>
	<path d="M100,34.375c0-9.505-3.354-17.611-10.059-24.316C83.236,3.354,75.13,0,65.625,0H0v100h100V34.375z"/>
</g>
</g></g><g transform="translate(1035,621) scale(0.69,0.69)"><g transform="" style="fill: rgb(0, 225, 255);">
<g>
	<path d="M100,34.375V0H34.375C24.87,0,16.764,3.353,10.059,10.059S0,24.87,0,34.375V100h100V34.375z"/>
</g>
</g></g><g transform="translate(1104,621) scale(0.69,0.69)"><g transform="" style="fill: rgb(0, 225, 255);">
<g>
	<path d="M100,0H0v100h65.625c9.505,0,17.611-3.354,24.316-10.059C96.646,83.236,100,75.13,100,65.625V0z"/>
</g>
</g></g><g transform="translate(1242,621) scale(0.69,0.69)"><g transform="" style="fill: rgb(0, 225, 255);">
<g>
	<path d="M100,34.375V0H34.375C24.87,0,16.764,3.353,10.059,10.059S0,24.87,0,34.375V100h100V34.375z"/>
</g>
</g></g><g transform="translate(1311,621) scale(0.69,0.69)"><g transform="" style="fill: rgb(0, 225, 255);">
<rect width="100" height="100"/>
</g></g><g transform="translate(1380,621) scale(0.69,0.69)"><g transform="" style="fill: rgb(0, 225, 255);">
<rect width="100" height="100"/>
</g></g><g transform="translate(1449,621) scale(0.69,0.69)"><g transform="" style="fill: rgb(0, 225, 255);">
<rect width="100" height="100"/>
</g></g><g transform="translate(1518,621) scale(0.69,0.69)"><g transform="" style="fill: rgb(0, 225, 255);">
<g>
	<path d="M100,34.375c0-9.505-3.354-17.611-10.059-24.316C83.236,3.354,75.13,0,65.625,0H0v100h100V34.375z"/>
</g>
</g></g><g transform="translate(1725,621) scale(0.69,0.69)"><g transform="" style="fill: rgb(0, 225, 255);">
<g>
	<path d="M100,34.375c0-9.505-3.354-17.611-10.059-24.316C83.236,3.354,75.13,0,65.625,0h-31.25C24.87,0,16.764,3.353,10.059,10.059
		S0,24.87,0,34.375v31.25c0,0.521,0.065,1.303,0.195,2.344H0V100h100V67.969h-0.195c0.132-1.041,0.195-1.822,0.195-2.344V34.375z"/>
</g>
</g></g><g transform="translate(1932,621) scale(0.69,0.69)"><g transform="" style="fill: rgb(0, 225, 255);">
<g>
	<path d="M100,65.625c0,9.507-3.355,17.611-10.059,24.316C83.236,96.645,75.132,100,65.625,100h-31.25
		c-9.504,0-17.61-3.355-24.315-10.059C3.354,83.236,0,75.132,0,65.625v-31.25c0-9.504,3.353-17.61,10.059-24.315
		C16.766,3.354,24.871,0,34.375,0h31.25c9.508,0,17.613,3.353,24.316,10.059C96.646,16.766,100,24.871,100,34.375V65.625z"/>
</g>
</g></g><g transform="translate(0,690) scale(0.69,0.69)"><g transform="" style="fill: rgb(0, 225, 255);">
<g>
	<path d="M100,0H0v65.625c0,9.505,3.353,17.611,10.059,24.316C16.765,96.646,24.87,100,34.375,100H100V0z"/>
</g>
</g></g><g transform="translate(69,690) scale(0.69,0.69)"><g transform="" style="fill: rgb(0, 225, 255);">
<rect width="100" height="100"/>
</g></g><g transform="translate(138,690) scale(0.69,0.69)"><g transform="" style="fill: rgb(0, 225, 255);">
<g>
	<path d="M65.625,0H0v100h65.625c9.505,0,17.611-3.354,24.316-10.059C96.646,83.236,100,75.13,100,65.625v-31.25
		c0-9.505-3.354-17.611-10.059-24.316C83.236,3.354,75.13,0,65.625,0z"/>
</g>
</g></g><g transform="translate(345,690) scale(0.69,0.69)"><g transform="" style="fill: rgb(0, 225, 255);">
<g>
	<path d="M100,0H0v65.625c0,9.505,3.353,17.611,10.059,24.316C16.765,96.646,24.87,100,34.375,100H100V0z"/>
</g>
</g></g><g transform="translate(414,690) scale(0.69,0.69)"><g transform="" style="fill: rgb(0, 225, 255);">
<g>
	<path d="M65.625,0H0v100h65.625c9.505,0,17.611-3.354,24.316-10.059C96.646,83.236,100,75.13,100,65.625v-31.25
		c0-9.505-3.354-17.611-10.059-24.316C83.236,3.354,75.13,0,65.625,0z"/>
</g>
</g></g><g transform="translate(552,690) scale(0.69,0.69)"><g transform="" style="fill: rgb(0, 225, 255);">
<rect width="100" height="100"/>
</g></g><g transform="translate(690,690) scale(0.69,0.69)"><g transform="" style="fill: rgb(0, 225, 255);">
<g>
	<path d="M100,65.625c0,9.507-3.355,17.611-10.059,24.316C83.236,96.645,75.132,100,65.625,100h-31.25
		c-9.504,0-17.61-3.355-24.315-10.059C3.354,83.236,0,75.132,0,65.625v-31.25c0-9.504,3.353-17.61,10.059-24.315
		C16.766,3.354,24.871,0,34.375,0h31.25c9.508,0,17.613,3.353,24.316,10.059C96.646,16.766,100,24.871,100,34.375V65.625z"/>
</g>
</g></g><g transform="translate(897,690) scale(0.69,0.69)"><g transform="" style="fill: rgb(0, 225, 255);">
<rect width="100" height="100"/>
</g></g><g transform="translate(966,690) scale(0.69,0.69)"><g transform="" style="fill: rgb(0, 225, 255);">
<rect width="100" height="100"/>
</g></g><g transform="translate(1035,690) scale(0.69,0.69)"><g transform="" style="fill: rgb(0, 225, 255);">
<g>
	<path d="M100,0H0v100h65.625c9.505,0,17.611-3.354,24.316-10.059C96.646,83.236,100,75.13,100,65.625V0z"/>
</g>
</g></g><g transform="translate(1242,690) scale(0.69,0.69)"><g transform="" style="fill: rgb(0, 225, 255);">
<g>
	<path d="M100,0H0v65.625c0,9.505,3.353,17.611,10.059,24.316C16.765,96.646,24.87,100,34.375,100H100V0z"/>
</g>
</g></g><g transform="translate(1311,690) scale(0.69,0.69)"><g transform="" style="fill: rgb(0, 225, 255);">
<rect width="100" height="100"/>
</g></g><g transform="translate(1380,690) scale(0.69,0.69)"><g transform="" style="fill: rgb(0, 225, 255);">
<rect width="100" height="100"/>
</g></g><g transform="translate(1449,690) scale(0.69,0.69)"><g transform="" style="fill: rgb(0, 225, 255);">
<rect width="100" height="100"/>
</g></g><g transform="translate(1518,690) scale(0.69,0.69)"><g transform="" style="fill: rgb(0, 225, 255);">
<rect width="100" height="100"/>
</g></g><g transform="translate(1587,690) scale(0.69,0.69)"><g transform="" style="fill: rgb(0, 225, 255);">
<g>
	<path d="M65.625,0H0v100h65.625c9.505,0,17.611-3.354,24.316-10.059C96.646,83.236,100,75.13,100,65.625v-31.25
		c0-9.505-3.354-17.611-10.059-24.316C83.236,3.354,75.13,0,65.625,0z"/>
</g>
</g></g><g transform="translate(1725,690) scale(0.69,0.69)"><g transform="" style="fill: rgb(0, 225, 255);">
<g>
	<path d="M100,0H0v65.625c0,9.505,3.353,17.611,10.059,24.316C16.765,96.646,24.87,100,34.375,100H100V0z"/>
</g>
</g></g><g transform="translate(1794,690) scale(0.69,0.69)"><g transform="" style="fill: rgb(0, 225, 255);">
<rect width="100" height="100"/>
</g></g><g transform="translate(1863,690) scale(0.69,0.69)"><g transform="" style="fill: rgb(0, 225, 255);">
<g>
	<path d="M100,34.375c0-9.505-3.354-17.611-10.059-24.316C83.236,3.354,75.13,0,65.625,0H0v100h100V34.375z"/>
</g>
</g></g><g transform="translate(69,759) scale(0.69,0.69)"><g transform="" style="fill: rgb(0, 225, 255);">
<g>
	<path d="M99.805,32.031H100V0H0v32.031h0.195C0.065,33.073,0,33.854,0,34.375v31.25c0,9.505,3.353,17.611,10.059,24.316
		C16.765,96.646,24.87,100,34.375,100h31.25c9.505,0,17.611-3.354,24.316-10.059C96.646,83.236,100,75.13,100,65.625v-31.25
		C100,33.854,99.937,33.073,99.805,32.031z"/>
</g>
</g></g><g transform="translate(207,759) scale(0.69,0.69)"><g transform="" style="fill: rgb(0, 225, 255);">
<g>
	<path d="M100,65.625c0,9.507-3.355,17.611-10.059,24.316C83.236,96.645,75.132,100,65.625,100h-31.25
		c-9.504,0-17.61-3.355-24.315-10.059C3.354,83.236,0,75.132,0,65.625v-31.25c0-9.504,3.353-17.61,10.059-24.315
		C16.766,3.354,24.871,0,34.375,0h31.25c9.508,0,17.613,3.353,24.316,10.059C96.646,16.766,100,24.871,100,34.375V65.625z"/>
</g>
</g></g><g transform="translate(552,759) scale(0.69,0.69)"><g transform="" style="fill: rgb(0, 225, 255);">
<rect width="100" height="100"/>
</g></g><g transform="translate(897,759) scale(0.69,0.69)"><g transform="" style="fill: rgb(0, 225, 255);">
<g>
	<path d="M99.805,32.031H100V0H0v32.031h0.195C0.065,33.073,0,33.854,0,34.375v31.25c0,9.505,3.353,17.611,10.059,24.316
		C16.765,96.646,24.87,100,34.375,100h31.25c9.505,0,17.611-3.354,24.316-10.059C96.646,83.236,100,75.13,100,65.625v-31.25
		C100,33.854,99.937,33.073,99.805,32.031z"/>
</g>
</g></g><g transform="translate(1104,759) scale(0.69,0.69)"><g transform="" style="fill: rgb(0, 225, 255);">
<g>
	<path d="M100,65.625c0,9.507-3.355,17.611-10.059,24.316C83.236,96.645,75.132,100,65.625,100h-31.25
		c-9.504,0-17.61-3.355-24.315-10.059C3.354,83.236,0,75.132,0,65.625v-31.25c0-9.504,3.353-17.61,10.059-24.315
		C16.766,3.354,24.871,0,34.375,0h31.25c9.508,0,17.613,3.353,24.316,10.059C96.646,16.766,100,24.871,100,34.375V65.625z"/>
</g>
</g></g><g transform="translate(1311,759) scale(0.69,0.69)"><g transform="" style="fill: rgb(0, 225, 255);">
<rect width="100" height="100"/>
</g></g><g transform="translate(1380,759) scale(0.69,0.69)"><g transform="" style="fill: rgb(0, 225, 255);">
<g>
	<path d="M100,0H0v100h65.625c9.505,0,17.611-3.354,24.316-10.059C96.646,83.236,100,75.13,100,65.625V0z"/>
</g>
</g></g><g transform="translate(1518,759) scale(0.69,0.69)"><g transform="" style="fill: rgb(0, 225, 255);">
<rect width="100" height="100"/>
</g></g><g transform="translate(1794,759) scale(0.69,0.69)"><g transform="" style="fill: rgb(0, 225, 255);">
<g>
	<path d="M100,0H0v65.625c0,9.505,3.353,17.611,10.059,24.316C16.765,96.646,24.87,100,34.375,100H100V0z"/>
</g>
</g></g><g transform="translate(1863,759) scale(0.69,0.69)"><g transform="" style="fill: rgb(0, 225, 255);">
<rect width="100" height="100"/>
</g></g><g transform="translate(0,828) scale(0.69,0.69)"><g transform="" style="fill: rgb(0, 225, 255);">
<g>
	<path d="M100,34.375c0-9.505-3.354-17.611-10.059-24.316C83.236,3.354,75.13,0,65.625,0h-31.25C24.87,0,16.764,3.353,10.059,10.059
		S0,24.87,0,34.375v31.25c0,0.521,0.065,1.303,0.195,2.344H0V100h100V67.969h-0.195c0.132-1.041,0.195-1.822,0.195-2.344V34.375z"/>
</g>
</g></g><g transform="translate(138,828) scale(0.69,0.69)"><g transform="" style="fill: rgb(0, 225, 255);">
<g>
	<path d="M100,34.375c0-9.505-3.354-17.611-10.059-24.316C83.236,3.354,75.13,0,65.625,0h-31.25C24.87,0,16.764,3.353,10.059,10.059
		S0,24.87,0,34.375v31.25c0,0.521,0.065,1.303,0.195,2.344H0V100h100V67.969h-0.195c0.132-1.041,0.195-1.822,0.195-2.344V34.375z"/>
</g>
</g></g><g transform="translate(276,828) scale(0.69,0.69)"><g transform="" style="fill: rgb(0, 225, 255);">
<g>
	<path d="M100,34.375c0-9.505-3.354-17.611-10.059-24.316C83.236,3.354,75.13,0,65.625,0h-31.25C24.87,0,16.764,3.353,10.059,10.059
		S0,24.87,0,34.375v31.25c0,0.521,0.065,1.303,0.195,2.344H0V100h100V67.969h-0.195c0.132-1.041,0.195-1.822,0.195-2.344V34.375z"/>
</g>
</g></g><g transform="translate(414,828) scale(0.69,0.69)"><g transform="" style="fill: rgb(0, 225, 255);">
<g>
	<path d="M100,65.625c0,9.507-3.355,17.611-10.059,24.316C83.236,96.645,75.132,100,65.625,100h-31.25
		c-9.504,0-17.61-3.355-24.315-10.059C3.354,83.236,0,75.132,0,65.625v-31.25c0-9.504,3.353-17.61,10.059-24.315
		C16.766,3.354,24.871,0,34.375,0h31.25c9.508,0,17.613,3.353,24.316,10.059C96.646,16.766,100,24.871,100,34.375V65.625z"/>
</g>
</g></g><g transform="translate(552,828) scale(0.69,0.69)"><g transform="" style="fill: rgb(0, 225, 255);">
<g>
	<path d="M100,0H0v65.625c0,9.505,3.353,17.611,10.059,24.316C16.765,96.646,24.87,100,34.375,100H100V0z"/>
</g>
</g></g><g transform="translate(621,828) scale(0.69,0.69)"><g transform="" style="fill: rgb(0, 225, 255);">
<rect width="100" height="100"/>
</g></g><g transform="translate(690,828) scale(0.69,0.69)"><g transform="" style="fill: rgb(0, 225, 255);">
<rect width="100" height="100"/>
</g></g><g transform="translate(759,828) scale(0.69,0.69)"><g transform="" style="fill: rgb(0, 225, 255);">
<g>
	<path d="M65.625,0H0v100h65.625c9.505,0,17.611-3.354,24.316-10.059C96.646,83.236,100,75.13,100,65.625v-31.25
		c0-9.505-3.354-17.611-10.059-24.316C83.236,3.354,75.13,0,65.625,0z"/>
</g>
</g></g><g transform="translate(966,828) scale(0.69,0.69)"><g transform="" style="fill: rgb(0, 225, 255);">
<g>
	<path d="M100,34.375V0H34.375C24.87,0,16.764,3.353,10.059,10.059S0,24.87,0,34.375V100h100V34.375z"/>
</g>
</g></g><g transform="translate(1035,828) scale(0.69,0.69)"><g transform="" style="fill: rgb(0, 225, 255);">
<g>
	<path d="M100,34.375c0-9.505-3.354-17.611-10.059-24.316C83.236,3.354,75.13,0,65.625,0H0v100h100V34.375z"/>
</g>
</g></g><g transform="translate(1173,828) scale(0.69,0.69)"><g transform="" style="fill: rgb(0, 225, 255);">
<g>
	<path d="M100,34.375c0-9.505-3.354-17.611-10.059-24.316C83.236,3.354,75.13,0,65.625,0h-31.25C24.87,0,16.764,3.353,10.059,10.059
		S0,24.87,0,34.375v31.25c0,0.521,0.065,1.303,0.195,2.344H0V100h100V67.969h-0.195c0.132-1.041,0.195-1.822,0.195-2.344V34.375z"/>
</g>
</g></g><g transform="translate(1311,828) scale(0.69,0.69)"><g transform="" style="fill: rgb(0, 225, 255);">
<rect width="100" height="100"/>
</g></g><g transform="translate(1449,828) scale(0.69,0.69)"><g transform="" style="fill: rgb(0, 225, 255);">
<g>
	<path d="M100,34.375V0H34.375C24.87,0,16.764,3.353,10.059,10.059S0,24.87,0,34.375v31.25c0,9.505,3.353,17.611,10.059,24.316
		C16.765,96.646,24.87,100,34.375,100H100V34.375z"/>
</g>
</g></g><g transform="translate(1518,828) scale(0.69,0.69)"><g transform="" style="fill: rgb(0, 225, 255);">
<g>
	<path d="M100,0H0v100h65.625c9.505,0,17.611-3.354,24.316-10.059C96.646,83.236,100,75.13,100,65.625V0z"/>
</g>
</g></g><g transform="translate(1725,828) scale(0.69,0.69)"><g transform="" style="fill: rgb(0, 225, 255);">
<g>
	<path d="M100,65.625c0,9.507-3.355,17.611-10.059,24.316C83.236,96.645,75.132,100,65.625,100h-31.25
		c-9.504,0-17.61-3.355-24.315-10.059C3.354,83.236,0,75.132,0,65.625v-31.25c0-9.504,3.353-17.61,10.059-24.315
		C16.766,3.354,24.871,0,34.375,0h31.25c9.508,0,17.613,3.353,24.316,10.059C96.646,16.766,100,24.871,100,34.375V65.625z"/>
</g>
</g></g><g transform="translate(1863,828) scale(0.69,0.69)"><g transform="" style="fill: rgb(0, 225, 255);">
<g>
	<path d="M100,0H0v65.625c0,9.505,3.353,17.611,10.059,24.316C16.765,96.646,24.87,100,34.375,100H100V0z"/>
</g>
</g></g><g transform="translate(1932,828) scale(0.69,0.69)"><g transform="" style="fill: rgb(0, 225, 255);">
<g>
	<path d="M65.625,0H0v100h65.625c9.505,0,17.611-3.354,24.316-10.059C96.646,83.236,100,75.13,100,65.625v-31.25
		c0-9.505-3.354-17.611-10.059-24.316C83.236,3.354,75.13,0,65.625,0z"/>
</g>
</g></g><g transform="translate(0,897) scale(0.69,0.69)"><g transform="" style="fill: rgb(0, 225, 255);">
<rect width="100" height="100"/>
</g></g><g transform="translate(138,897) scale(0.69,0.69)"><g transform="" style="fill: rgb(0, 225, 255);">
<g>
	<path d="M99.805,32.031H100V0H0v32.031h0.195C0.065,33.073,0,33.854,0,34.375v31.25c0,9.505,3.353,17.611,10.059,24.316
		C16.765,96.646,24.87,100,34.375,100h31.25c9.505,0,17.611-3.354,24.316-10.059C96.646,83.236,100,75.13,100,65.625v-31.25
		C100,33.854,99.937,33.073,99.805,32.031z"/>
</g>
</g></g><g transform="translate(276,897) scale(0.69,0.69)"><g transform="" style="fill: rgb(0, 225, 255);">
<rect width="100" height="100"/>
</g></g><g transform="translate(483,897) scale(0.69,0.69)"><g transform="" style="fill: rgb(0, 225, 255);">
<g>
	<path d="M100,34.375c0-9.505-3.354-17.611-10.059-24.316C83.236,3.354,75.13,0,65.625,0h-31.25C24.87,0,16.764,3.353,10.059,10.059
		S0,24.87,0,34.375v31.25c0,0.521,0.065,1.303,0.195,2.344H0V100h100V67.969h-0.195c0.132-1.041,0.195-1.822,0.195-2.344V34.375z"/>
</g>
</g></g><g transform="translate(690,897) scale(0.69,0.69)"><g transform="" style="fill: rgb(0, 225, 255);">
<g>
	<path d="M99.805,32.031H100V0H0v32.031h0.195C0.065,33.073,0,33.854,0,34.375v31.25c0,9.505,3.353,17.611,10.059,24.316
		C16.765,96.646,24.87,100,34.375,100h31.25c9.505,0,17.611-3.354,24.316-10.059C96.646,83.236,100,75.13,100,65.625v-31.25
		C100,33.854,99.937,33.073,99.805,32.031z"/>
</g>
</g></g><g transform="translate(828,897) scale(0.69,0.69)"><g transform="" style="fill: rgb(0, 225, 255);">
<g>
	<path d="M100,34.375V0H34.375C24.87,0,16.764,3.353,10.059,10.059S0,24.87,0,34.375V100h100V34.375z"/>
</g>
</g></g><g transform="translate(897,897) scale(0.69,0.69)"><g transform="" style="fill: rgb(0, 225, 255);">
<rect width="100" height="100"/>
</g></g><g transform="translate(966,897) scale(0.69,0.69)"><g transform="" style="fill: rgb(0, 225, 255);">
<rect width="100" height="100"/>
</g></g><g transform="translate(1035,897) scale(0.69,0.69)"><g transform="" style="fill: rgb(0, 225, 255);">
<rect width="100" height="100"/>
</g></g><g transform="translate(1104,897) scale(0.69,0.69)"><g transform="" style="fill: rgb(0, 225, 255);">
<rect width="100" height="100"/>
</g></g><g transform="translate(1173,897) scale(0.69,0.69)"><g transform="" style="fill: rgb(0, 225, 255);">
<rect width="100" height="100"/>
</g></g><g transform="translate(1242,897) scale(0.69,0.69)"><g transform="" style="fill: rgb(0, 225, 255);">
<rect width="100" height="100"/>
</g></g><g transform="translate(1311,897) scale(0.69,0.69)"><g transform="" style="fill: rgb(0, 225, 255);">
<g>
	<path d="M100,0H0v100h65.625c9.505,0,17.611-3.354,24.316-10.059C96.646,83.236,100,75.13,100,65.625V0z"/>
</g>
</g></g><g transform="translate(0,966) scale(0.69,0.69)"><g transform="" style="fill: rgb(0, 225, 255);">
<rect width="100" height="100"/>
</g></g><g transform="translate(207,966) scale(0.69,0.69)"><g transform="" style="fill: rgb(0, 225, 255);">
<g>
	<path d="M100,34.375V0H34.375C24.87,0,16.764,3.353,10.059,10.059S0,24.87,0,34.375v31.25c0,9.505,3.353,17.611,10.059,24.316
		C16.765,96.646,24.87,100,34.375,100H100V34.375z"/>
</g>
</g></g><g transform="translate(276,966) scale(0.69,0.69)"><g transform="" style="fill: rgb(0, 225, 255);">
<g>
	<path d="M100,0H0v100h65.625c9.505,0,17.611-3.354,24.316-10.059C96.646,83.236,100,75.13,100,65.625V0z"/>
</g>
</g></g><g transform="translate(414,966) scale(0.69,0.69)"><g transform="" style="fill: rgb(0, 225, 255);">
<g>
	<path d="M100,34.375V0H34.375C24.87,0,16.764,3.353,10.059,10.059S0,24.87,0,34.375v31.25c0,9.505,3.353,17.611,10.059,24.316
		C16.765,96.646,24.87,100,34.375,100H100V34.375z"/>
</g>
</g></g><g transform="translate(483,966) scale(0.69,0.69)"><g transform="" style="fill: rgb(0, 225, 255);">
<rect width="100" height="100"/>
</g></g><g transform="translate(621,966) scale(0.69,0.69)"><g transform="" style="fill: rgb(0, 225, 255);">
<g>
	<path d="M100,34.375c0-9.505-3.354-17.611-10.059-24.316C83.236,3.354,75.13,0,65.625,0h-31.25C24.87,0,16.764,3.353,10.059,10.059
		S0,24.87,0,34.375v31.25c0,0.521,0.065,1.303,0.195,2.344H0V100h100V67.969h-0.195c0.132-1.041,0.195-1.822,0.195-2.344V34.375z"/>
</g>
</g></g><g transform="translate(759,966) scale(0.69,0.69)"><g transform="" style="fill: rgb(0, 225, 255);">
<g>
	<path d="M100,34.375V0H34.375C24.87,0,16.764,3.353,10.059,10.059S0,24.87,0,34.375V100h100V34.375z"/>
</g>
</g></g><g transform="translate(828,966) scale(0.69,0.69)"><g transform="" style="fill: rgb(0, 225, 255);">
<rect width="100" height="100"/>
</g></g><g transform="translate(897,966) scale(0.69,0.69)"><g transform="" style="fill: rgb(0, 225, 255);">
<rect width="100" height="100"/>
</g></g><g transform="translate(966,966) scale(0.69,0.69)"><g transform="" style="fill: rgb(0, 225, 255);">
<g>
	<path d="M100,0H0v100h65.625c9.505,0,17.611-3.354,24.316-10.059C96.646,83.236,100,75.13,100,65.625V0z"/>
</g>
</g></g><g transform="translate(1380,966) scale(0.69,0.69)"><g transform="" style="fill: rgb(0, 225, 255);">
<g>
	<path d="M100,34.375c0-9.505-3.354-17.611-10.059-24.316C83.236,3.354,75.13,0,65.625,0h-31.25C24.87,0,16.764,3.353,10.059,10.059
		S0,24.87,0,34.375v31.25c0,0.521,0.065,1.303,0.195,2.344H0V100h100V67.969h-0.195c0.132-1.041,0.195-1.822,0.195-2.344V34.375z"/>
</g>
</g></g><g transform="translate(1518,966) scale(0.69,0.69)"><g transform="" style="fill: rgb(0, 225, 255);">
<g>
	<path d="M100,34.375c0-9.505-3.354-17.611-10.059-24.316C83.236,3.354,75.13,0,65.625,0h-31.25C24.87,0,16.764,3.353,10.059,10.059
		S0,24.87,0,34.375v31.25c0,0.521,0.065,1.303,0.195,2.344H0V100h100V67.969h-0.195c0.132-1.041,0.195-1.822,0.195-2.344V34.375z"/>
</g>
</g></g><g transform="translate(1725,966) scale(0.69,0.69)"><g transform="" style="fill: rgb(0, 225, 255);">
<g>
	<path d="M100,34.375V0H34.375C24.87,0,16.764,3.353,10.059,10.059S0,24.87,0,34.375V100h100V34.375z"/>
</g>
</g></g><g transform="translate(1794,966) scale(0.69,0.69)"><g transform="" style="fill: rgb(0, 225, 255);">
<rect width="100" height="100"/>
</g></g><g transform="translate(1863,966) scale(0.69,0.69)"><g transform="" style="fill: rgb(0, 225, 255);">
<rect width="100" height="100"/>
</g></g><g transform="translate(1932,966) scale(0.69,0.69)"><g transform="" style="fill: rgb(0, 225, 255);">
<g>
	<path d="M65.625,0H0v100h65.625c9.505,0,17.611-3.354,24.316-10.059C96.646,83.236,100,75.13,100,65.625v-31.25
		c0-9.505-3.354-17.611-10.059-24.316C83.236,3.354,75.13,0,65.625,0z"/>
</g>
</g></g><g transform="translate(0,1035) scale(0.69,0.69)"><g transform="" style="fill: rgb(0, 225, 255);">
<g>
	<path d="M99.805,32.031H100V0H0v32.031h0.195C0.065,33.073,0,33.854,0,34.375v31.25c0,9.505,3.353,17.611,10.059,24.316
		C16.765,96.646,24.87,100,34.375,100h31.25c9.505,0,17.611-3.354,24.316-10.059C96.646,83.236,100,75.13,100,65.625v-31.25
		C100,33.854,99.937,33.073,99.805,32.031z"/>
</g>
</g></g><g transform="translate(345,1035) scale(0.69,0.69)"><g transform="" style="fill: rgb(0, 225, 255);">
<g>
	<path d="M100,34.375c0-9.505-3.354-17.611-10.059-24.316C83.236,3.354,75.13,0,65.625,0h-31.25C24.87,0,16.764,3.353,10.059,10.059
		S0,24.87,0,34.375v31.25c0,0.521,0.065,1.303,0.195,2.344H0V100h100V67.969h-0.195c0.132-1.041,0.195-1.822,0.195-2.344V34.375z"/>
</g>
</g></g><g transform="translate(483,1035) scale(0.69,0.69)"><g transform="" style="fill: rgb(0, 225, 255);">
<g>
	<path d="M99.805,32.031H100V0H0v32.031h0.195C0.065,33.073,0,33.854,0,34.375v31.25c0,9.505,3.353,17.611,10.059,24.316
		C16.765,96.646,24.87,100,34.375,100h31.25c9.505,0,17.611-3.354,24.316-10.059C96.646,83.236,100,75.13,100,65.625v-31.25
		C100,33.854,99.937,33.073,99.805,32.031z"/>
</g>
</g></g><g transform="translate(621,1035) scale(0.69,0.69)"><g transform="" style="fill: rgb(0, 225, 255);">
<rect width="100" height="100"/>
</g></g><g transform="translate(759,1035) scale(0.69,0.69)"><g transform="" style="fill: rgb(0, 225, 255);">
<rect width="100" height="100"/>
</g></g><g transform="translate(828,1035) scale(0.69,0.69)"><g transform="" style="fill: rgb(0, 225, 255);">
<rect width="100" height="100"/>
</g></g><g transform="translate(1035,1035) scale(0.69,0.69)"><g transform="" style="fill: rgb(0, 225, 255);">
<g>
	<path d="M100,65.625c0,9.507-3.355,17.611-10.059,24.316C83.236,96.645,75.132,100,65.625,100h-31.25
		c-9.504,0-17.61-3.355-24.315-10.059C3.354,83.236,0,75.132,0,65.625v-31.25c0-9.504,3.353-17.61,10.059-24.315
		C16.766,3.354,24.871,0,34.375,0h31.25c9.508,0,17.613,3.353,24.316,10.059C96.646,16.766,100,24.871,100,34.375V65.625z"/>
</g>
</g></g><g transform="translate(1173,1035) scale(0.69,0.69)"><g transform="" style="fill: rgb(0, 225, 255);">
<g>
	<path d="M100,34.375V0H34.375C24.87,0,16.764,3.353,10.059,10.059S0,24.87,0,34.375V100h100V34.375z"/>
</g>
</g></g><g transform="translate(1242,1035) scale(0.69,0.69)"><g transform="" style="fill: rgb(0, 225, 255);">
<g>
	<path d="M65.625,0H0v100h65.625c9.505,0,17.611-3.354,24.316-10.059C96.646,83.236,100,75.13,100,65.625v-31.25
		c0-9.505-3.354-17.611-10.059-24.316C83.236,3.354,75.13,0,65.625,0z"/>
</g>
</g></g><g transform="translate(1380,1035) scale(0.69,0.69)"><g transform="" style="fill: rgb(0, 225, 255);">
<rect width="100" height="100"/>
</g></g><g transform="translate(1449,1035) scale(0.69,0.69)"><g transform="" style="fill: rgb(0, 225, 255);">
<rect width="100" height="100"/>
</g></g><g transform="translate(1518,1035) scale(0.69,0.69)"><g transform="" style="fill: rgb(0, 225, 255);">
<rect width="100" height="100"/>
</g></g><g transform="translate(1587,1035) scale(0.69,0.69)"><g transform="" style="fill: rgb(0, 225, 255);">
<g>
	<path d="M100,34.375c0-9.505-3.354-17.611-10.059-24.316C83.236,3.354,75.13,0,65.625,0H0v100h100V34.375z"/>
</g>
</g></g><g transform="translate(1725,1035) scale(0.69,0.69)"><g transform="" style="fill: rgb(0, 225, 255);">
<g>
	<path d="M99.805,32.031H100V0H0v32.031h0.195C0.065,33.073,0,33.854,0,34.375v31.25c0,9.505,3.353,17.611,10.059,24.316
		C16.765,96.646,24.87,100,34.375,100h31.25c9.505,0,17.611-3.354,24.316-10.059C96.646,83.236,100,75.13,100,65.625v-31.25
		C100,33.854,99.937,33.073,99.805,32.031z"/>
</g>
</g></g><g transform="translate(1863,1035) scale(0.69,0.69)"><g transform="" style="fill: rgb(0, 225, 255);">
<rect width="100" height="100"/>
</g></g><g transform="translate(138,1104) scale(0.69,0.69)"><g transform="" style="fill: rgb(0, 225, 255);">
<g>
	<path d="M100,34.375c0-9.505-3.354-17.611-10.059-24.316C83.236,3.354,75.13,0,65.625,0h-31.25C24.87,0,16.764,3.353,10.059,10.059
		S0,24.87,0,34.375v31.25c0,0.521,0.065,1.303,0.195,2.344H0V100h100V67.969h-0.195c0.132-1.041,0.195-1.822,0.195-2.344V34.375z"/>
</g>
</g></g><g transform="translate(276,1104) scale(0.69,0.69)"><g transform="" style="fill: rgb(0, 225, 255);">
<g>
	<path d="M100,34.375V0H34.375C24.87,0,16.764,3.353,10.059,10.059S0,24.87,0,34.375V100h100V34.375z"/>
</g>
</g></g><g transform="translate(345,1104) scale(0.69,0.69)"><g transform="" style="fill: rgb(0, 225, 255);">
<rect width="100" height="100"/>
</g></g><g transform="translate(414,1104) scale(0.69,0.69)"><g transform="" style="fill: rgb(0, 225, 255);">
<g>
	<path d="M65.625,0H0v100h65.625c9.505,0,17.611-3.354,24.316-10.059C96.646,83.236,100,75.13,100,65.625v-31.25
		c0-9.505-3.354-17.611-10.059-24.316C83.236,3.354,75.13,0,65.625,0z"/>
</g>
</g></g><g transform="translate(552,1104) scale(0.69,0.69)"><g transform="" style="fill: rgb(0, 225, 255);">
<g>
	<path d="M100,34.375V0H34.375C24.87,0,16.764,3.353,10.059,10.059S0,24.87,0,34.375v31.25c0,9.505,3.353,17.611,10.059,24.316
		C16.765,96.646,24.87,100,34.375,100H100V34.375z"/>
</g>
</g></g><g transform="translate(621,1104) scale(0.69,0.69)"><g transform="" style="fill: rgb(0, 225, 255);">
<rect width="100" height="100"/>
</g></g><g transform="translate(690,1104) scale(0.69,0.69)"><g transform="" style="fill: rgb(0, 225, 255);">
<rect width="100" height="100"/>
</g></g><g transform="translate(759,1104) scale(0.69,0.69)"><g transform="" style="fill: rgb(0, 225, 255);">
<rect width="100" height="100"/>
</g></g><g transform="translate(828,1104) scale(0.69,0.69)"><g transform="" style="fill: rgb(0, 225, 255);">
<rect width="100" height="100"/>
</g></g><g transform="translate(897,1104) scale(0.69,0.69)"><g transform="" style="fill: rgb(0, 225, 255);">
<g>
	<path d="M100,34.375c0-9.505-3.354-17.611-10.059-24.316C83.236,3.354,75.13,0,65.625,0H0v100h100V34.375z"/>
</g>
</g></g><g transform="translate(1173,1104) scale(0.69,0.69)"><g transform="" style="fill: rgb(0, 225, 255);">
<rect width="100" height="100"/>
</g></g><g transform="translate(1380,1104) scale(0.69,0.69)"><g transform="" style="fill: rgb(0, 225, 255);">
<rect width="100" height="100"/>
</g></g><g transform="translate(1449,1104) scale(0.69,0.69)"><g transform="" style="fill: rgb(0, 225, 255);">
<rect width="100" height="100"/>
</g></g><g transform="translate(1587,1104) scale(0.69,0.69)"><g transform="" style="fill: rgb(0, 225, 255);">
<rect width="100" height="100"/>
</g></g><g transform="translate(1863,1104) scale(0.69,0.69)"><g transform="" style="fill: rgb(0, 225, 255);">
<g>
	<path d="M99.805,32.031H100V0H0v32.031h0.195C0.065,33.073,0,33.854,0,34.375v31.25c0,9.505,3.353,17.611,10.059,24.316
		C16.765,96.646,24.87,100,34.375,100h31.25c9.505,0,17.611-3.354,24.316-10.059C96.646,83.236,100,75.13,100,65.625v-31.25
		C100,33.854,99.937,33.073,99.805,32.031z"/>
</g>
</g></g><g transform="translate(69,1173) scale(0.69,0.69)"><g transform="" style="fill: rgb(0, 225, 255);">
<g>
	<path d="M100,34.375V0H34.375C24.87,0,16.764,3.353,10.059,10.059S0,24.87,0,34.375v31.25c0,9.505,3.353,17.611,10.059,24.316
		C16.765,96.646,24.87,100,34.375,100H100V34.375z"/>
</g>
</g></g><g transform="translate(138,1173) scale(0.69,0.69)"><g transform="" style="fill: rgb(0, 225, 255);">
<g>
	<path d="M100,0H0v100h65.625c9.505,0,17.611-3.354,24.316-10.059C96.646,83.236,100,75.13,100,65.625V0z"/>
</g>
</g></g><g transform="translate(276,1173) scale(0.69,0.69)"><g transform="" style="fill: rgb(0, 225, 255);">
<g>
	<path d="M100,0H0v65.625c0,9.505,3.353,17.611,10.059,24.316C16.765,96.646,24.87,100,34.375,100H100V0z"/>
</g>
</g></g><g transform="translate(345,1173) scale(0.69,0.69)"><g transform="" style="fill: rgb(0, 225, 255);">
<rect width="100" height="100"/>
</g></g><g transform="translate(621,1173) scale(0.69,0.69)"><g transform="" style="fill: rgb(0, 225, 255);">
<rect width="100" height="100"/>
</g></g><g transform="translate(759,1173) scale(0.69,0.69)"><g transform="" style="fill: rgb(0, 225, 255);">
<rect width="100" height="100"/>
</g></g><g transform="translate(897,1173) scale(0.69,0.69)"><g transform="" style="fill: rgb(0, 225, 255);">
<g>
	<path d="M100,0H0v65.625c0,9.505,3.353,17.611,10.059,24.316C16.765,96.646,24.87,100,34.375,100H100V0z"/>
</g>
</g></g><g transform="translate(966,1173) scale(0.69,0.69)"><g transform="" style="fill: rgb(0, 225, 255);">
<rect width="100" height="100"/>
</g></g><g transform="translate(1035,1173) scale(0.69,0.69)"><g transform="" style="fill: rgb(0, 225, 255);">
<rect width="100" height="100"/>
</g></g><g transform="translate(1104,1173) scale(0.69,0.69)"><g transform="" style="fill: rgb(0, 225, 255);">
<rect width="100" height="100"/>
</g></g><g transform="translate(1173,1173) scale(0.69,0.69)"><g transform="" style="fill: rgb(0, 225, 255);">
<rect width="100" height="100"/>
</g></g><g transform="translate(1380,1173) scale(0.69,0.69)"><g transform="" style="fill: rgb(0, 225, 255);">
<g>
	<path d="M100,0H0v65.625c0,9.505,3.353,17.611,10.059,24.316C16.765,96.646,24.87,100,34.375,100H100V0z"/>
</g>
</g></g><g transform="translate(1449,1173) scale(0.69,0.69)"><g transform="" style="fill: rgb(0, 225, 255);">
<rect width="100" height="100"/>
</g></g><g transform="translate(1518,1173) scale(0.69,0.69)"><g transform="" style="fill: rgb(0, 225, 255);">
<rect width="100" height="100"/>
</g></g><g transform="translate(1587,1173) scale(0.69,0.69)"><g transform="" style="fill: rgb(0, 225, 255);">
<rect width="100" height="100"/>
</g></g><g transform="translate(1725,1173) scale(0.69,0.69)"><g transform="" style="fill: rgb(0, 225, 255);">
<g>
	<path d="M100,65.625c0,9.507-3.355,17.611-10.059,24.316C83.236,96.645,75.132,100,65.625,100h-31.25
		c-9.504,0-17.61-3.355-24.315-10.059C3.354,83.236,0,75.132,0,65.625v-31.25c0-9.504,3.353-17.61,10.059-24.315
		C16.766,3.354,24.871,0,34.375,0h31.25c9.508,0,17.613,3.353,24.316,10.059C96.646,16.766,100,24.871,100,34.375V65.625z"/>
</g>
</g></g><g transform="translate(1932,1173) scale(0.69,0.69)"><g transform="" style="fill: rgb(0, 225, 255);">
<g>
	<path d="M100,34.375c0-9.505-3.354-17.611-10.059-24.316C83.236,3.354,75.13,0,65.625,0h-31.25C24.87,0,16.764,3.353,10.059,10.059
		S0,24.87,0,34.375v31.25c0,0.521,0.065,1.303,0.195,2.344H0V100h100V67.969h-0.195c0.132-1.041,0.195-1.822,0.195-2.344V34.375z"/>
</g>
</g></g><g transform="translate(0,1242) scale(0.69,0.69)"><g transform="" style="fill: rgb(0, 225, 255);">
<g>
	<path d="M100,65.625c0,9.507-3.355,17.611-10.059,24.316C83.236,96.645,75.132,100,65.625,100h-31.25
		c-9.504,0-17.61-3.355-24.315-10.059C3.354,83.236,0,75.132,0,65.625v-31.25c0-9.504,3.353-17.61,10.059-24.315
		C16.766,3.354,24.871,0,34.375,0h31.25c9.508,0,17.613,3.353,24.316,10.059C96.646,16.766,100,24.871,100,34.375V65.625z"/>
</g>
</g></g><g transform="translate(345,1242) scale(0.69,0.69)"><g transform="" style="fill: rgb(0, 225, 255);">
<g>
	<path d="M100,0H0v65.625c0,9.505,3.353,17.611,10.059,24.316C16.765,96.646,24.87,100,34.375,100H100V0z"/>
</g>
</g></g><g transform="translate(414,1242) scale(0.69,0.69)"><g transform="" style="fill: rgb(0, 225, 255);">
<rect width="100" height="100"/>
</g></g><g transform="translate(483,1242) scale(0.69,0.69)"><g transform="" style="fill: rgb(0, 225, 255);">
<g>
	<path d="M65.625,0H0v100h65.625c9.505,0,17.611-3.354,24.316-10.059C96.646,83.236,100,75.13,100,65.625v-31.25
		c0-9.505-3.354-17.611-10.059-24.316C83.236,3.354,75.13,0,65.625,0z"/>
</g>
</g></g><g transform="translate(621,1242) scale(0.69,0.69)"><g transform="" style="fill: rgb(0, 225, 255);">
<g>
	<path d="M100,0H0v65.625c0,9.505,3.353,17.611,10.059,24.316C16.765,96.646,24.87,100,34.375,100H100V0z"/>
</g>
</g></g><g transform="translate(690,1242) scale(0.69,0.69)"><g transform="" style="fill: rgb(0, 225, 255);">
<rect width="100" height="100"/>
</g></g><g transform="translate(759,1242) scale(0.69,0.69)"><g transform="" style="fill: rgb(0, 225, 255);">
<rect width="100" height="100"/>
</g></g><g transform="translate(966,1242) scale(0.69,0.69)"><g transform="" style="fill: rgb(0, 225, 255);">
<rect width="100" height="100"/>
</g></g><g transform="translate(1035,1242) scale(0.69,0.69)"><g transform="" style="fill: rgb(0, 225, 255);">
<rect width="100" height="100"/>
</g></g><g transform="translate(1104,1242) scale(0.69,0.69)"><g transform="" style="fill: rgb(0, 225, 255);">
<rect width="100" height="100"/>
</g></g><g transform="translate(1173,1242) scale(0.69,0.69)"><g transform="" style="fill: rgb(0, 225, 255);">
<rect width="100" height="100"/>
</g></g><g transform="translate(1242,1242) scale(0.69,0.69)"><g transform="" style="fill: rgb(0, 225, 255);">
<g>
	<path d="M100,34.375c0-9.505-3.354-17.611-10.059-24.316C83.236,3.354,75.13,0,65.625,0H0v100h100V34.375z"/>
</g>
</g></g><g transform="translate(1449,1242) scale(0.69,0.69)"><g transform="" style="fill: rgb(0, 225, 255);">
<rect width="100" height="100"/>
</g></g><g transform="translate(1518,1242) scale(0.69,0.69)"><g transform="" style="fill: rgb(0, 225, 255);">
<rect width="100" height="100"/>
</g></g><g transform="translate(1587,1242) scale(0.69,0.69)"><g transform="" style="fill: rgb(0, 225, 255);">
<rect width="100" height="100"/>
</g></g><g transform="translate(1656,1242) scale(0.69,0.69)"><g transform="" style="fill: rgb(0, 225, 255);">
<g>
	<path d="M100,34.375c0-9.505-3.354-17.611-10.059-24.316C83.236,3.354,75.13,0,65.625,0H0v100h100V34.375z"/>
</g>
</g></g><g transform="translate(1863,1242) scale(0.69,0.69)"><g transform="" style="fill: rgb(0, 225, 255);">
<g>
	<path d="M100,34.375V0H34.375C24.87,0,16.764,3.353,10.059,10.059S0,24.87,0,34.375V100h100V34.375z"/>
</g>
</g></g><g transform="translate(1932,1242) scale(0.69,0.69)"><g transform="" style="fill: rgb(0, 225, 255);">
<rect width="100" height="100"/>
</g></g><g transform="translate(138,1311) scale(0.69,0.69)"><g transform="" style="fill: rgb(0, 225, 255);">
<g>
	<path d="M100,65.625c0,9.507-3.355,17.611-10.059,24.316C83.236,96.645,75.132,100,65.625,100h-31.25
		c-9.504,0-17.61-3.355-24.315-10.059C3.354,83.236,0,75.132,0,65.625v-31.25c0-9.504,3.353-17.61,10.059-24.315
		C16.766,3.354,24.871,0,34.375,0h31.25c9.508,0,17.613,3.353,24.316,10.059C96.646,16.766,100,24.871,100,34.375V65.625z"/>
</g>
</g></g><g transform="translate(276,1311) scale(0.69,0.69)"><g transform="" style="fill: rgb(0, 225, 255);">
<g>
	<path d="M100,65.625c0,9.507-3.355,17.611-10.059,24.316C83.236,96.645,75.132,100,65.625,100h-31.25
		c-9.504,0-17.61-3.355-24.315-10.059C3.354,83.236,0,75.132,0,65.625v-31.25c0-9.504,3.353-17.61,10.059-24.315
		C16.766,3.354,24.871,0,34.375,0h31.25c9.508,0,17.613,3.353,24.316,10.059C96.646,16.766,100,24.871,100,34.375V65.625z"/>
</g>
</g></g><g transform="translate(552,1311) scale(0.69,0.69)"><g transform="" style="fill: rgb(0, 225, 255);">
<g>
	<path d="M100,65.625c0,9.507-3.355,17.611-10.059,24.316C83.236,96.645,75.132,100,65.625,100h-31.25
		c-9.504,0-17.61-3.355-24.315-10.059C3.354,83.236,0,75.132,0,65.625v-31.25c0-9.504,3.353-17.61,10.059-24.315
		C16.766,3.354,24.871,0,34.375,0h31.25c9.508,0,17.613,3.353,24.316,10.059C96.646,16.766,100,24.871,100,34.375V65.625z"/>
</g>
</g></g><g transform="translate(759,1311) scale(0.69,0.69)"><g transform="" style="fill: rgb(0, 225, 255);">
<g>
	<path d="M100,0H0v65.625c0,9.505,3.353,17.611,10.059,24.316C16.765,96.646,24.87,100,34.375,100H100V0z"/>
</g>
</g></g><g transform="translate(828,1311) scale(0.69,0.69)"><g transform="" style="fill: rgb(0, 225, 255);">
<g>
	<path d="M65.625,0H0v100h65.625c9.505,0,17.611-3.354,24.316-10.059C96.646,83.236,100,75.13,100,65.625v-31.25
		c0-9.505-3.354-17.611-10.059-24.316C83.236,3.354,75.13,0,65.625,0z"/>
</g>
</g></g><g transform="translate(966,1311) scale(0.69,0.69)"><g transform="" style="fill: rgb(0, 225, 255);">
<g>
	<path d="M99.805,32.031H100V0H0v32.031h0.195C0.065,33.073,0,33.854,0,34.375v31.25c0,9.505,3.353,17.611,10.059,24.316
		C16.765,96.646,24.87,100,34.375,100h31.25c9.505,0,17.611-3.354,24.316-10.059C96.646,83.236,100,75.13,100,65.625v-31.25
		C100,33.854,99.937,33.073,99.805,32.031z"/>
</g>
</g></g><g transform="translate(1173,1311) scale(0.69,0.69)"><g transform="" style="fill: rgb(0, 225, 255);">
<g>
	<path d="M100,0H0v65.625c0,9.505,3.353,17.611,10.059,24.316C16.765,96.646,24.87,100,34.375,100H100V0z"/>
</g>
</g></g><g transform="translate(1242,1311) scale(0.69,0.69)"><g transform="" style="fill: rgb(0, 225, 255);">
<rect width="100" height="100"/>
</g></g><g transform="translate(1311,1311) scale(0.69,0.69)"><g transform="" style="fill: rgb(0, 225, 255);">
<rect width="100" height="100"/>
</g></g><g transform="translate(1380,1311) scale(0.69,0.69)"><g transform="" style="fill: rgb(0, 225, 255);">
<rect width="100" height="100"/>
</g></g><g transform="translate(1449,1311) scale(0.69,0.69)"><g transform="" style="fill: rgb(0, 225, 255);">
<rect width="100" height="100"/>
</g></g><g transform="translate(1518,1311) scale(0.69,0.69)"><g transform="" style="fill: rgb(0, 225, 255);">
<rect width="100" height="100"/>
</g></g><g transform="translate(1587,1311) scale(0.69,0.69)"><g transform="" style="fill: rgb(0, 225, 255);">
<rect width="100" height="100"/>
</g></g><g transform="translate(1656,1311) scale(0.69,0.69)"><g transform="" style="fill: rgb(0, 225, 255);">
<rect width="100" height="100"/>
</g></g><g transform="translate(1863,1311) scale(0.69,0.69)"><g transform="" style="fill: rgb(0, 225, 255);">
<g>
	<path d="M100,0H0v65.625c0,9.505,3.353,17.611,10.059,24.316C16.765,96.646,24.87,100,34.375,100H100V0z"/>
</g>
</g></g><g transform="translate(1932,1311) scale(0.69,0.69)"><g transform="" style="fill: rgb(0, 225, 255);">
<g>
	<path d="M100,0H0v100h65.625c9.505,0,17.611-3.354,24.316-10.059C96.646,83.236,100,75.13,100,65.625V0z"/>
</g>
</g></g><g transform="translate(0,1380) scale(0.69,0.69)"><g transform="" style="fill: rgb(0, 225, 255);">
<g>
	<path d="M100,65.625c0,9.507-3.355,17.611-10.059,24.316C83.236,96.645,75.132,100,65.625,100h-31.25
		c-9.504,0-17.61-3.355-24.315-10.059C3.354,83.236,0,75.132,0,65.625v-31.25c0-9.504,3.353-17.61,10.059-24.315
		C16.766,3.354,24.871,0,34.375,0h31.25c9.508,0,17.613,3.353,24.316,10.059C96.646,16.766,100,24.871,100,34.375V65.625z"/>
</g>
</g></g><g transform="translate(345,1380) scale(0.69,0.69)"><g transform="" style="fill: rgb(0, 225, 255);">
<g>
	<path d="M100,34.375V0H34.375C24.87,0,16.764,3.353,10.059,10.059S0,24.87,0,34.375v31.25c0,9.505,3.353,17.611,10.059,24.316
		C16.765,96.646,24.87,100,34.375,100H100V34.375z"/>
</g>
</g></g><g transform="translate(414,1380) scale(0.69,0.69)"><g transform="" style="fill: rgb(0, 225, 255);">
<g>
	<path d="M65.625,0H0v100h65.625c9.505,0,17.611-3.354,24.316-10.059C96.646,83.236,100,75.13,100,65.625v-31.25
		c0-9.505-3.354-17.611-10.059-24.316C83.236,3.354,75.13,0,65.625,0z"/>
</g>
</g></g><g transform="translate(690,1380) scale(0.69,0.69)"><g transform="" style="fill: rgb(0, 225, 255);">
<g>
	<path d="M100,65.625c0,9.507-3.355,17.611-10.059,24.316C83.236,96.645,75.132,100,65.625,100h-31.25
		c-9.504,0-17.61-3.355-24.315-10.059C3.354,83.236,0,75.132,0,65.625v-31.25c0-9.504,3.353-17.61,10.059-24.315
		C16.766,3.354,24.871,0,34.375,0h31.25c9.508,0,17.613,3.353,24.316,10.059C96.646,16.766,100,24.871,100,34.375V65.625z"/>
</g>
</g></g><g transform="translate(1035,1380) scale(0.69,0.69)"><g transform="" style="fill: rgb(0, 225, 255);">
<g>
	<path d="M100,34.375c0-9.505-3.354-17.611-10.059-24.316C83.236,3.354,75.13,0,65.625,0h-31.25C24.87,0,16.764,3.353,10.059,10.059
		S0,24.87,0,34.375v31.25c0,0.521,0.065,1.303,0.195,2.344H0V100h100V67.969h-0.195c0.132-1.041,0.195-1.822,0.195-2.344V34.375z"/>
</g>
</g></g><g transform="translate(1380,1380) scale(0.69,0.69)"><g transform="" style="fill: rgb(0, 225, 255);">
<rect width="100" height="100"/>
</g></g><g transform="translate(1449,1380) scale(0.69,0.69)"><g transform="" style="fill: rgb(0, 225, 255);">
<rect width="100" height="100"/>
</g></g><g transform="translate(1518,1380) scale(0.69,0.69)"><g transform="" style="fill: rgb(0, 225, 255);">
<rect width="100" height="100"/>
</g></g><g transform="translate(1587,1380) scale(0.69,0.69)"><g transform="" style="fill: rgb(0, 225, 255);">
<rect width="100" height="100"/>
</g></g><g transform="translate(1656,1380) scale(0.69,0.69)"><g transform="" style="fill: rgb(0, 225, 255);">
<rect width="100" height="100"/>
</g></g><g transform="translate(1794,1380) scale(0.69,0.69)"><g transform="" style="fill: rgb(0, 225, 255);">
<g>
	<path d="M100,34.375c0-9.505-3.354-17.611-10.059-24.316C83.236,3.354,75.13,0,65.625,0h-31.25C24.87,0,16.764,3.353,10.059,10.059
		S0,24.87,0,34.375v31.25c0,0.521,0.065,1.303,0.195,2.344H0V100h100V67.969h-0.195c0.132-1.041,0.195-1.822,0.195-2.344V34.375z"/>
</g>
</g></g><g transform="translate(552,1449) scale(0.69,0.69)"><g transform="" style="fill: rgb(0, 225, 255);">
<g>
	<path d="M100,34.375V0H34.375C24.87,0,16.764,3.353,10.059,10.059S0,24.87,0,34.375v31.25c0,9.505,3.353,17.611,10.059,24.316
		C16.765,96.646,24.87,100,34.375,100H100V34.375z"/>
</g>
</g></g><g transform="translate(621,1449) scale(0.69,0.69)"><g transform="" style="fill: rgb(0, 225, 255);">
<g>
	<path d="M65.625,0H0v100h65.625c9.505,0,17.611-3.354,24.316-10.059C96.646,83.236,100,75.13,100,65.625v-31.25
		c0-9.505-3.354-17.611-10.059-24.316C83.236,3.354,75.13,0,65.625,0z"/>
</g>
</g></g><g transform="translate(759,1449) scale(0.69,0.69)"><g transform="" style="fill: rgb(0, 225, 255);">
<g>
	<path d="M100,65.625c0,9.507-3.355,17.611-10.059,24.316C83.236,96.645,75.132,100,65.625,100h-31.25
		c-9.504,0-17.61-3.355-24.315-10.059C3.354,83.236,0,75.132,0,65.625v-31.25c0-9.504,3.353-17.61,10.059-24.315
		C16.766,3.354,24.871,0,34.375,0h31.25c9.508,0,17.613,3.353,24.316,10.059C96.646,16.766,100,24.871,100,34.375V65.625z"/>
</g>
</g></g><g transform="translate(966,1449) scale(0.69,0.69)"><g transform="" style="fill: rgb(0, 225, 255);">
<g>
	<path d="M100,34.375V0H34.375C24.87,0,16.764,3.353,10.059,10.059S0,24.87,0,34.375v31.25c0,9.505,3.353,17.611,10.059,24.316
		C16.765,96.646,24.87,100,34.375,100H100V34.375z"/>
</g>
</g></g><g transform="translate(1035,1449) scale(0.69,0.69)"><g transform="" style="fill: rgb(0, 225, 255);">
<g>
	<path d="M100,0H0v100h65.625c9.505,0,17.611-3.354,24.316-10.059C96.646,83.236,100,75.13,100,65.625V0z"/>
</g>
</g></g><g transform="translate(1173,1449) scale(0.69,0.69)"><g transform="" style="fill: rgb(0, 225, 255);">
<g>
	<path d="M100,65.625c0,9.507-3.355,17.611-10.059,24.316C83.236,96.645,75.132,100,65.625,100h-31.25
		c-9.504,0-17.61-3.355-24.315-10.059C3.354,83.236,0,75.132,0,65.625v-31.25c0-9.504,3.353-17.61,10.059-24.315
		C16.766,3.354,24.871,0,34.375,0h31.25c9.508,0,17.613,3.353,24.316,10.059C96.646,16.766,100,24.871,100,34.375V65.625z"/>
</g>
</g></g><g transform="translate(1311,1449) scale(0.69,0.69)"><g transform="" style="fill: rgb(0, 225, 255);">
<g>
	<path d="M100,34.375V0H34.375C24.87,0,16.764,3.353,10.059,10.059S0,24.87,0,34.375v31.25c0,9.505,3.353,17.611,10.059,24.316
		C16.765,96.646,24.87,100,34.375,100H100V34.375z"/>
</g>
</g></g><g transform="translate(1380,1449) scale(0.69,0.69)"><g transform="" style="fill: rgb(0, 225, 255);">
<rect width="100" height="100"/>
</g></g><g transform="translate(1656,1449) scale(0.69,0.69)"><g transform="" style="fill: rgb(0, 225, 255);">
<rect width="100" height="100"/>
</g></g><g transform="translate(1794,1449) scale(0.69,0.69)"><g transform="" style="fill: rgb(0, 225, 255);">
<g>
	<path d="M100,0H0v65.625c0,9.505,3.353,17.611,10.059,24.316C16.765,96.646,24.87,100,34.375,100H100V0z"/>
</g>
</g></g><g transform="translate(1863,1449) scale(0.69,0.69)"><g transform="" style="fill: rgb(0, 225, 255);">
<rect width="100" height="100"/>
</g></g><g transform="translate(1932,1449) scale(0.69,0.69)"><g transform="" style="fill: rgb(0, 225, 255);">
<g>
	<path d="M65.625,0H0v100h65.625c9.505,0,17.611-3.354,24.316-10.059C96.646,83.236,100,75.13,100,65.625v-31.25
		c0-9.505-3.354-17.611-10.059-24.316C83.236,3.354,75.13,0,65.625,0z"/>
</g>
</g></g><g transform="translate(690,1518) scale(0.69,0.69)"><g transform="" style="fill: rgb(0, 225, 255);">
<g>
	<path d="M100,34.375c0-9.505-3.354-17.611-10.059-24.316C83.236,3.354,75.13,0,65.625,0h-31.25C24.87,0,16.764,3.353,10.059,10.059
		S0,24.87,0,34.375v31.25c0,0.521,0.065,1.303,0.195,2.344H0V100h100V67.969h-0.195c0.132-1.041,0.195-1.822,0.195-2.344V34.375z"/>
</g>
</g></g><g transform="translate(828,1518) scale(0.69,0.69)"><g transform="" style="fill: rgb(0, 225, 255);">
<g>
	<path d="M100,65.625c0,9.507-3.355,17.611-10.059,24.316C83.236,96.645,75.132,100,65.625,100h-31.25
		c-9.504,0-17.61-3.355-24.315-10.059C3.354,83.236,0,75.132,0,65.625v-31.25c0-9.504,3.353-17.61,10.059-24.315
		C16.766,3.354,24.871,0,34.375,0h31.25c9.508,0,17.613,3.353,24.316,10.059C96.646,16.766,100,24.871,100,34.375V65.625z"/>
</g>
</g></g><g transform="translate(1104,1518) scale(0.69,0.69)"><g transform="" style="fill: rgb(0, 225, 255);">
<g>
	<path d="M100,65.625c0,9.507-3.355,17.611-10.059,24.316C83.236,96.645,75.132,100,65.625,100h-31.25
		c-9.504,0-17.61-3.355-24.315-10.059C3.354,83.236,0,75.132,0,65.625v-31.25c0-9.504,3.353-17.61,10.059-24.315
		C16.766,3.354,24.871,0,34.375,0h31.25c9.508,0,17.613,3.353,24.316,10.059C96.646,16.766,100,24.871,100,34.375V65.625z"/>
</g>
</g></g><g transform="translate(1380,1518) scale(0.69,0.69)"><g transform="" style="fill: rgb(0, 225, 255);">
<rect width="100" height="100"/>
</g></g><g transform="translate(1518,1518) scale(0.69,0.69)"><g transform="" style="fill: rgb(0, 225, 255);">
<g>
	<path d="M100,65.625c0,9.507-3.355,17.611-10.059,24.316C83.236,96.645,75.132,100,65.625,100h-31.25
		c-9.504,0-17.61-3.355-24.315-10.059C3.354,83.236,0,75.132,0,65.625v-31.25c0-9.504,3.353-17.61,10.059-24.315
		C16.766,3.354,24.871,0,34.375,0h31.25c9.508,0,17.613,3.353,24.316,10.059C96.646,16.766,100,24.871,100,34.375V65.625z"/>
</g>
</g></g><g transform="translate(1656,1518) scale(0.69,0.69)"><g transform="" style="fill: rgb(0, 225, 255);">
<rect width="100" height="100"/>
</g></g><g transform="translate(1863,1518) scale(0.69,0.69)"><g transform="" style="fill: rgb(0, 225, 255);">
<g>
	<path d="M99.805,32.031H100V0H0v32.031h0.195C0.065,33.073,0,33.854,0,34.375v31.25c0,9.505,3.353,17.611,10.059,24.316
		C16.765,96.646,24.87,100,34.375,100h31.25c9.505,0,17.611-3.354,24.316-10.059C96.646,83.236,100,75.13,100,65.625v-31.25
		C100,33.854,99.937,33.073,99.805,32.031z"/>
</g>
</g></g><g transform="translate(552,1587) scale(0.69,0.69)"><g transform="" style="fill: rgb(0, 225, 255);">
<g>
	<path d="M100,34.375V0H34.375C24.87,0,16.764,3.353,10.059,10.059S0,24.87,0,34.375v31.25c0,9.505,3.353,17.611,10.059,24.316
		C16.765,96.646,24.87,100,34.375,100H100V34.375z"/>
</g>
</g></g><g transform="translate(621,1587) scale(0.69,0.69)"><g transform="" style="fill: rgb(0, 225, 255);">
<rect width="100" height="100"/>
</g></g><g transform="translate(690,1587) scale(0.69,0.69)"><g transform="" style="fill: rgb(0, 225, 255);">
<rect width="100" height="100"/>
</g></g><g transform="translate(759,1587) scale(0.69,0.69)"><g transform="" style="fill: rgb(0, 225, 255);">
<g>
	<path d="M100,34.375c0-9.505-3.354-17.611-10.059-24.316C83.236,3.354,75.13,0,65.625,0H0v100h100V34.375z"/>
</g>
</g></g><g transform="translate(966,1587) scale(0.69,0.69)"><g transform="" style="fill: rgb(0, 225, 255);">
<g>
	<path d="M100,34.375V0H34.375C24.87,0,16.764,3.353,10.059,10.059S0,24.87,0,34.375v31.25c0,9.505,3.353,17.611,10.059,24.316
		C16.765,96.646,24.87,100,34.375,100H100V34.375z"/>
</g>
</g></g><g transform="translate(1035,1587) scale(0.69,0.69)"><g transform="" style="fill: rgb(0, 225, 255);">
<g>
	<path d="M65.625,0H0v100h65.625c9.505,0,17.611-3.354,24.316-10.059C96.646,83.236,100,75.13,100,65.625v-31.25
		c0-9.505-3.354-17.611-10.059-24.316C83.236,3.354,75.13,0,65.625,0z"/>
</g>
</g></g><g transform="translate(1242,1587) scale(0.69,0.69)"><g transform="" style="fill: rgb(0, 225, 255);">
<g>
	<path d="M100,65.625c0,9.507-3.355,17.611-10.059,24.316C83.236,96.645,75.132,100,65.625,100h-31.25
		c-9.504,0-17.61-3.355-24.315-10.059C3.354,83.236,0,75.132,0,65.625v-31.25c0-9.504,3.353-17.61,10.059-24.315
		C16.766,3.354,24.871,0,34.375,0h31.25c9.508,0,17.613,3.353,24.316,10.059C96.646,16.766,100,24.871,100,34.375V65.625z"/>
</g>
</g></g><g transform="translate(1380,1587) scale(0.69,0.69)"><g transform="" style="fill: rgb(0, 225, 255);">
<rect width="100" height="100"/>
</g></g><g transform="translate(1656,1587) scale(0.69,0.69)"><g transform="" style="fill: rgb(0, 225, 255);">
<rect width="100" height="100"/>
</g></g><g transform="translate(1725,1587) scale(0.69,0.69)"><g transform="" style="fill: rgb(0, 225, 255);">
<rect width="100" height="100"/>
</g></g><g transform="translate(1794,1587) scale(0.69,0.69)"><g transform="" style="fill: rgb(0, 225, 255);">
<g>
	<path d="M65.625,0H0v100h65.625c9.505,0,17.611-3.354,24.316-10.059C96.646,83.236,100,75.13,100,65.625v-31.25
		c0-9.505-3.354-17.611-10.059-24.316C83.236,3.354,75.13,0,65.625,0z"/>
</g>
</g></g><g transform="translate(759,1656) scale(0.69,0.69)"><g transform="" style="fill: rgb(0, 225, 255);">
<g>
	<path d="M100,0H0v65.625c0,9.505,3.353,17.611,10.059,24.316C16.765,96.646,24.87,100,34.375,100H100V0z"/>
</g>
</g></g><g transform="translate(828,1656) scale(0.69,0.69)"><g transform="" style="fill: rgb(0, 225, 255);">
<g>
	<path d="M100,34.375c0-9.505-3.354-17.611-10.059-24.316C83.236,3.354,75.13,0,65.625,0H0v100h100V34.375z"/>
</g>
</g></g><g transform="translate(1104,1656) scale(0.69,0.69)"><g transform="" style="fill: rgb(0, 225, 255);">
<g>
	<path d="M100,65.625c0,9.507-3.355,17.611-10.059,24.316C83.236,96.645,75.132,100,65.625,100h-31.25
		c-9.504,0-17.61-3.355-24.315-10.059C3.354,83.236,0,75.132,0,65.625v-31.25c0-9.504,3.353-17.61,10.059-24.315
		C16.766,3.354,24.871,0,34.375,0h31.25c9.508,0,17.613,3.353,24.316,10.059C96.646,16.766,100,24.871,100,34.375V65.625z"/>
</g>
</g></g><g transform="translate(1380,1656) scale(0.69,0.69)"><g transform="" style="fill: rgb(0, 225, 255);">
<rect width="100" height="100"/>
</g></g><g transform="translate(1449,1656) scale(0.69,0.69)"><g transform="" style="fill: rgb(0, 225, 255);">
<rect width="100" height="100"/>
</g></g><g transform="translate(1518,1656) scale(0.69,0.69)"><g transform="" style="fill: rgb(0, 225, 255);">
<rect width="100" height="100"/>
</g></g><g transform="translate(1587,1656) scale(0.69,0.69)"><g transform="" style="fill: rgb(0, 225, 255);">
<rect width="100" height="100"/>
</g></g><g transform="translate(1656,1656) scale(0.69,0.69)"><g transform="" style="fill: rgb(0, 225, 255);">
<rect width="100" height="100"/>
</g></g><g transform="translate(1863,1656) scale(0.69,0.69)"><g transform="" style="fill: rgb(0, 225, 255);">
<g>
	<path d="M100,65.625c0,9.507-3.355,17.611-10.059,24.316C83.236,96.645,75.132,100,65.625,100h-31.25
		c-9.504,0-17.61-3.355-24.315-10.059C3.354,83.236,0,75.132,0,65.625v-31.25c0-9.504,3.353-17.61,10.059-24.315
		C16.766,3.354,24.871,0,34.375,0h31.25c9.508,0,17.613,3.353,24.316,10.059C96.646,16.766,100,24.871,100,34.375V65.625z"/>
</g>
</g></g><g transform="translate(552,1725) scale(0.69,0.69)"><g transform="" style="fill: rgb(0, 225, 255);">
<g>
	<path d="M100,34.375V0H34.375C24.87,0,16.764,3.353,10.059,10.059S0,24.87,0,34.375v31.25c0,9.505,3.353,17.611,10.059,24.316
		C16.765,96.646,24.87,100,34.375,100H100V34.375z"/>
</g>
</g></g><g transform="translate(621,1725) scale(0.69,0.69)"><g transform="" style="fill: rgb(0, 225, 255);">
<rect width="100" height="100"/>
</g></g><g transform="translate(690,1725) scale(0.69,0.69)"><g transform="" style="fill: rgb(0, 225, 255);">
<g>
	<path d="M65.625,0H0v100h65.625c9.505,0,17.611-3.354,24.316-10.059C96.646,83.236,100,75.13,100,65.625v-31.25
		c0-9.505-3.354-17.611-10.059-24.316C83.236,3.354,75.13,0,65.625,0z"/>
</g>
</g></g><g transform="translate(828,1725) scale(0.69,0.69)"><g transform="" style="fill: rgb(0, 225, 255);">
<g>
	<path d="M99.805,32.031H100V0H0v32.031h0.195C0.065,33.073,0,33.854,0,34.375v31.25c0,9.505,3.353,17.611,10.059,24.316
		C16.765,96.646,24.87,100,34.375,100h31.25c9.505,0,17.611-3.354,24.316-10.059C96.646,83.236,100,75.13,100,65.625v-31.25
		C100,33.854,99.937,33.073,99.805,32.031z"/>
</g>
</g></g><g transform="translate(1035,1725) scale(0.69,0.69)"><g transform="" style="fill: rgb(0, 225, 255);">
<g>
	<path d="M100,34.375c0-9.505-3.354-17.611-10.059-24.316C83.236,3.354,75.13,0,65.625,0h-31.25C24.87,0,16.764,3.353,10.059,10.059
		S0,24.87,0,34.375v31.25c0,0.521,0.065,1.303,0.195,2.344H0V100h100V67.969h-0.195c0.132-1.041,0.195-1.822,0.195-2.344V34.375z"/>
</g>
</g></g><g transform="translate(1173,1725) scale(0.69,0.69)"><g transform="" style="fill: rgb(0, 225, 255);">
<g>
	<path d="M100,65.625c0,9.507-3.355,17.611-10.059,24.316C83.236,96.645,75.132,100,65.625,100h-31.25
		c-9.504,0-17.61-3.355-24.315-10.059C3.354,83.236,0,75.132,0,65.625v-31.25c0-9.504,3.353-17.61,10.059-24.315
		C16.766,3.354,24.871,0,34.375,0h31.25c9.508,0,17.613,3.353,24.316,10.059C96.646,16.766,100,24.871,100,34.375V65.625z"/>
</g>
</g></g><g transform="translate(1311,1725) scale(0.69,0.69)"><g transform="" style="fill: rgb(0, 225, 255);">
<g>
	<path d="M100,34.375V0H34.375C24.87,0,16.764,3.353,10.059,10.059S0,24.87,0,34.375V100h100V34.375z"/>
</g>
</g></g><g transform="translate(1380,1725) scale(0.69,0.69)"><g transform="" style="fill: rgb(0, 225, 255);">
<rect width="100" height="100"/>
</g></g><g transform="translate(1449,1725) scale(0.69,0.69)"><g transform="" style="fill: rgb(0, 225, 255);">
<rect width="100" height="100"/>
</g></g><g transform="translate(1518,1725) scale(0.69,0.69)"><g transform="" style="fill: rgb(0, 225, 255);">
<rect width="100" height="100"/>
</g></g><g transform="translate(1587,1725) scale(0.69,0.69)"><g transform="" style="fill: rgb(0, 225, 255);">
<rect width="100" height="100"/>
</g></g><g transform="translate(1656,1725) scale(0.69,0.69)"><g transform="" style="fill: rgb(0, 225, 255);">
<rect width="100" height="100"/>
</g></g><g transform="translate(1725,1725) scale(0.69,0.69)"><g transform="" style="fill: rgb(0, 225, 255);">
<rect width="100" height="100"/>
</g></g><g transform="translate(1794,1725) scale(0.69,0.69)"><g transform="" style="fill: rgb(0, 225, 255);">
<g>
	<path d="M100,34.375c0-9.505-3.354-17.611-10.059-24.316C83.236,3.354,75.13,0,65.625,0H0v100h100V34.375z"/>
</g>
</g></g><g transform="translate(1932,1725) scale(0.69,0.69)"><g transform="" style="fill: rgb(0, 225, 255);">
<g>
	<path d="M100,34.375c0-9.505-3.354-17.611-10.059-24.316C83.236,3.354,75.13,0,65.625,0h-31.25C24.87,0,16.764,3.353,10.059,10.059
		S0,24.87,0,34.375v31.25c0,0.521,0.065,1.303,0.195,2.344H0V100h100V67.969h-0.195c0.132-1.041,0.195-1.822,0.195-2.344V34.375z"/>
</g>
</g></g><g transform="translate(621,1794) scale(0.69,0.69)"><g transform="" style="fill: rgb(0, 225, 255);">
<g>
	<path d="M99.805,32.031H100V0H0v32.031h0.195C0.065,33.073,0,33.854,0,34.375v31.25c0,9.505,3.353,17.611,10.059,24.316
		C16.765,96.646,24.87,100,34.375,100h31.25c9.505,0,17.611-3.354,24.316-10.059C96.646,83.236,100,75.13,100,65.625v-31.25
		C100,33.854,99.937,33.073,99.805,32.031z"/>
</g>
</g></g><g transform="translate(759,1794) scale(0.69,0.69)"><g transform="" style="fill: rgb(0, 225, 255);">
<g>
	<path d="M100,34.375c0-9.505-3.354-17.611-10.059-24.316C83.236,3.354,75.13,0,65.625,0h-31.25C24.87,0,16.764,3.353,10.059,10.059
		S0,24.87,0,34.375v31.25c0,0.521,0.065,1.303,0.195,2.344H0V100h100V67.969h-0.195c0.132-1.041,0.195-1.822,0.195-2.344V34.375z"/>
</g>
</g></g><g transform="translate(897,1794) scale(0.69,0.69)"><g transform="" style="fill: rgb(0, 225, 255);">
<g>
	<path d="M100,34.375c0-9.505-3.354-17.611-10.059-24.316C83.236,3.354,75.13,0,65.625,0h-31.25C24.87,0,16.764,3.353,10.059,10.059
		S0,24.87,0,34.375v31.25c0,0.521,0.065,1.303,0.195,2.344H0V100h100V67.969h-0.195c0.132-1.041,0.195-1.822,0.195-2.344V34.375z"/>
</g>
</g></g><g transform="translate(1035,1794) scale(0.69,0.69)"><g transform="" style="fill: rgb(0, 225, 255);">
<g>
	<path d="M100,0H0v65.625c0,9.505,3.353,17.611,10.059,24.316C16.765,96.646,24.87,100,34.375,100H100V0z"/>
</g>
</g></g><g transform="translate(1104,1794) scale(0.69,0.69)"><g transform="" style="fill: rgb(0, 225, 255);">
<g>
	<path d="M100,34.375c0-9.505-3.354-17.611-10.059-24.316C83.236,3.354,75.13,0,65.625,0H0v100h100V34.375z"/>
</g>
</g></g><g transform="translate(1311,1794) scale(0.69,0.69)"><g transform="" style="fill: rgb(0, 225, 255);">
<rect width="100" height="100"/>
</g></g><g transform="translate(1656,1794) scale(0.69,0.69)"><g transform="" style="fill: rgb(0, 225, 255);">
<g>
	<path d="M100,0H0v65.625c0,9.505,3.353,17.611,10.059,24.316C16.765,96.646,24.87,100,34.375,100H100V0z"/>
</g>
</g></g><g transform="translate(1725,1794) scale(0.69,0.69)"><g transform="" style="fill: rgb(0, 225, 255);">
<rect width="100" height="100"/>
</g></g><g transform="translate(1794,1794) scale(0.69,0.69)"><g transform="" style="fill: rgb(0, 225, 255);">
<g>
	<path d="M100,0H0v100h65.625c9.505,0,17.611-3.354,24.316-10.059C96.646,83.236,100,75.13,100,65.625V0z"/>
</g>
</g></g><g transform="translate(1932,1794) scale(0.69,0.69)"><g transform="" style="fill: rgb(0, 225, 255);">
<g>
	<path d="M99.805,32.031H100V0H0v32.031h0.195C0.065,33.073,0,33.854,0,34.375v31.25c0,9.505,3.353,17.611,10.059,24.316
		C16.765,96.646,24.87,100,34.375,100h31.25c9.505,0,17.611-3.354,24.316-10.059C96.646,83.236,100,75.13,100,65.625v-31.25
		C100,33.854,99.937,33.073,99.805,32.031z"/>
</g>
</g></g><g transform="translate(759,1863) scale(0.69,0.69)"><g transform="" style="fill: rgb(0, 225, 255);">
<rect width="100" height="100"/>
</g></g><g transform="translate(897,1863) scale(0.69,0.69)"><g transform="" style="fill: rgb(0, 225, 255);">
<rect width="100" height="100"/>
</g></g><g transform="translate(966,1863) scale(0.69,0.69)"><g transform="" style="fill: rgb(0, 225, 255);">
<g>
	<path d="M65.625,0H0v100h65.625c9.505,0,17.611-3.354,24.316-10.059C96.646,83.236,100,75.13,100,65.625v-31.25
		c0-9.505-3.354-17.611-10.059-24.316C83.236,3.354,75.13,0,65.625,0z"/>
</g>
</g></g><g transform="translate(1104,1863) scale(0.69,0.69)"><g transform="" style="fill: rgb(0, 225, 255);">
<g>
	<path d="M100,0H0v65.625c0,9.505,3.353,17.611,10.059,24.316C16.765,96.646,24.87,100,34.375,100H100V0z"/>
</g>
</g></g><g transform="translate(1173,1863) scale(0.69,0.69)"><g transform="" style="fill: rgb(0, 225, 255);">
<rect width="100" height="100"/>
</g></g><g transform="translate(1242,1863) scale(0.69,0.69)"><g transform="" style="fill: rgb(0, 225, 255);">
<rect width="100" height="100"/>
</g></g><g transform="translate(1311,1863) scale(0.69,0.69)"><g transform="" style="fill: rgb(0, 225, 255);">
<rect width="100" height="100"/>
</g></g><g transform="translate(1380,1863) scale(0.69,0.69)"><g transform="" style="fill: rgb(0, 225, 255);">
<g>
	<path d="M100,34.375c0-9.505-3.354-17.611-10.059-24.316C83.236,3.354,75.13,0,65.625,0H0v100h100V34.375z"/>
</g>
</g></g><g transform="translate(1518,1863) scale(0.69,0.69)"><g transform="" style="fill: rgb(0, 225, 255);">
<g>
	<path d="M100,34.375V0H34.375C24.87,0,16.764,3.353,10.059,10.059S0,24.87,0,34.375V100h100V34.375z"/>
</g>
</g></g><g transform="translate(1587,1863) scale(0.69,0.69)"><g transform="" style="fill: rgb(0, 225, 255);">
<g>
	<path d="M100,34.375c0-9.505-3.354-17.611-10.059-24.316C83.236,3.354,75.13,0,65.625,0H0v100h100V34.375z"/>
</g>
</g></g><g transform="translate(1863,1863) scale(0.69,0.69)"><g transform="" style="fill: rgb(0, 225, 255);">
<g>
	<path d="M100,34.375c0-9.505-3.354-17.611-10.059-24.316C83.236,3.354,75.13,0,65.625,0h-31.25C24.87,0,16.764,3.353,10.059,10.059
		S0,24.87,0,34.375v31.25c0,0.521,0.065,1.303,0.195,2.344H0V100h100V67.969h-0.195c0.132-1.041,0.195-1.822,0.195-2.344V34.375z"/>
</g>
</g></g><g transform="translate(552,1932) scale(0.69,0.69)"><g transform="" style="fill: rgb(0, 225, 255);">
<g>
	<path d="M100,65.625c0,9.507-3.355,17.611-10.059,24.316C83.236,96.645,75.132,100,65.625,100h-31.25
		c-9.504,0-17.61-3.355-24.315-10.059C3.354,83.236,0,75.132,0,65.625v-31.25c0-9.504,3.353-17.61,10.059-24.315
		C16.766,3.354,24.871,0,34.375,0h31.25c9.508,0,17.613,3.353,24.316,10.059C96.646,16.766,100,24.871,100,34.375V65.625z"/>
</g>
</g></g><g transform="translate(690,1932) scale(0.69,0.69)"><g transform="" style="fill: rgb(0, 225, 255);">
<g>
	<path d="M100,34.375V0H34.375C24.87,0,16.764,3.353,10.059,10.059S0,24.87,0,34.375v31.25c0,9.505,3.353,17.611,10.059,24.316
		C16.765,96.646,24.87,100,34.375,100H100V34.375z"/>
</g>
</g></g><g transform="translate(759,1932) scale(0.69,0.69)"><g transform="" style="fill: rgb(0, 225, 255);">
<rect width="100" height="100"/>
</g></g><g transform="translate(828,1932) scale(0.69,0.69)"><g transform="" style="fill: rgb(0, 225, 255);">
<rect width="100" height="100"/>
</g></g><g transform="translate(897,1932) scale(0.69,0.69)"><g transform="" style="fill: rgb(0, 225, 255);">
<g>
	<path d="M100,0H0v100h65.625c9.505,0,17.611-3.354,24.316-10.059C96.646,83.236,100,75.13,100,65.625V0z"/>
</g>
</g></g><g transform="translate(1035,1932) scale(0.69,0.69)"><g transform="" style="fill: rgb(0, 225, 255);">
<g>
	<path d="M100,65.625c0,9.507-3.355,17.611-10.059,24.316C83.236,96.645,75.132,100,65.625,100h-31.25
		c-9.504,0-17.61-3.355-24.315-10.059C3.354,83.236,0,75.132,0,65.625v-31.25c0-9.504,3.353-17.61,10.059-24.315
		C16.766,3.354,24.871,0,34.375,0h31.25c9.508,0,17.613,3.353,24.316,10.059C96.646,16.766,100,24.871,100,34.375V65.625z"/>
</g>
</g></g><g transform="translate(1242,1932) scale(0.69,0.69)"><g transform="" style="fill: rgb(0, 225, 255);">
<g>
	<path d="M99.805,32.031H100V0H0v32.031h0.195C0.065,33.073,0,33.854,0,34.375v31.25c0,9.505,3.353,17.611,10.059,24.316
		C16.765,96.646,24.87,100,34.375,100h31.25c9.505,0,17.611-3.354,24.316-10.059C96.646,83.236,100,75.13,100,65.625v-31.25
		C100,33.854,99.937,33.073,99.805,32.031z"/>
</g>
</g></g><g transform="translate(1380,1932) scale(0.69,0.69)"><g transform="" style="fill: rgb(0, 225, 255);">
<g>
	<path d="M99.805,32.031H100V0H0v32.031h0.195C0.065,33.073,0,33.854,0,34.375v31.25c0,9.505,3.353,17.611,10.059,24.316
		C16.765,96.646,24.87,100,34.375,100h31.25c9.505,0,17.611-3.354,24.316-10.059C96.646,83.236,100,75.13,100,65.625v-31.25
		C100,33.854,99.937,33.073,99.805,32.031z"/>
</g>
</g></g><g transform="translate(1518,1932) scale(0.69,0.69)"><g transform="" style="fill: rgb(0, 225, 255);">
<g>
	<path d="M100,0H0v65.625c0,9.505,3.353,17.611,10.059,24.316C16.765,96.646,24.87,100,34.375,100H100V0z"/>
</g>
</g></g><g transform="translate(1587,1932) scale(0.69,0.69)"><g transform="" style="fill: rgb(0, 225, 255);">
<rect width="100" height="100"/>
</g></g><g transform="translate(1656,1932) scale(0.69,0.69)"><g transform="" style="fill: rgb(0, 225, 255);">
<rect width="100" height="100"/>
</g></g><g transform="translate(1725,1932) scale(0.69,0.69)"><g transform="" style="fill: rgb(0, 225, 255);">
<g>
	<path d="M65.625,0H0v100h65.625c9.505,0,17.611-3.354,24.316-10.059C96.646,83.236,100,75.13,100,65.625v-31.25
		c0-9.505-3.354-17.611-10.059-24.316C83.236,3.354,75.13,0,65.625,0z"/>
</g>
</g></g><g transform="translate(1863,1932) scale(0.69,0.69)"><g transform="" style="fill: rgb(0, 225, 255);">
<g>
	<path d="M99.805,32.031H100V0H0v32.031h0.195C0.065,33.073,0,33.854,0,34.375v31.25c0,9.505,3.353,17.611,10.059,24.316
		C16.765,96.646,24.87,100,34.375,100h31.25c9.505,0,17.611-3.354,24.316-10.059C96.646,83.236,100,75.13,100,65.625v-31.25
		C100,33.854,99.937,33.073,99.805,32.031z"/>
</g>
</g></g><g transform="translate(0,0) scale(4.83, 4.83)"><g transform="" style="fill: rgb(11, 178, 196);">
<path d="M21.475,99.992c-6.648,0-12.964-6.852-13.958-13.207L0.011-0.008l88.112,5.649c6.212,0.931,11.096,6.804,11.104,13.848
	l0.762,80.503H21.475z M85.706,85.71l-0.544-57.492c-0.005-5.029-3.495-9.233-7.931-9.898l-62.938-4.03l5.36,61.98
	c0.71,4.536,5.222,9.44,9.971,9.44H85.706z"/>
</g></g><g transform="translate(1518,0) scale(4.83, 4.83)"><g transform=" translate(100, 0) scale(-1,1) " style="fill: rgb(11, 178, 196);">
<path d="M21.475,99.992c-6.648,0-12.964-6.852-13.958-13.207L0.011-0.008l88.112,5.649c6.212,0.931,11.096,6.804,11.104,13.848
	l0.762,80.503H21.475z M85.706,85.71l-0.544-57.492c-0.005-5.029-3.495-9.233-7.931-9.898l-62.938-4.03l5.36,61.98
	c0.71,4.536,5.222,9.44,9.971,9.44H85.706z"/>
</g></g><g transform="translate(0,1518) scale(4.83, 4.83)"><g transform=" translate(0,100) scale(1,-1) " style="fill: rgb(11, 178, 196);">
<path d="M21.475,99.992c-6.648,0-12.964-6.852-13.958-13.207L0.011-0.008l88.112,5.649c6.212,0.931,11.096,6.804,11.104,13.848
	l0.762,80.503H21.475z M85.706,85.71l-0.544-57.492c-0.005-5.029-3.495-9.233-7.931-9.898l-62.938-4.03l5.36,61.98
	c0.71,4.536,5.222,9.44,9.971,9.44H85.706z"/>
</g></g><g transform="translate(138,138) scale(2.07, 2.07)"><g transform="" style="fill: rgb(55, 104, 218);">
<g>
	<g id="XMLID_1_">
		<g>
			<path d="M27.351,100c-15.09,0-27.365-12.032-27.365-26.808V26.794c0-4.616,1.2-8.96,3.301-12.761
				c2.029-3.658,4.901-6.802,8.36-9.174C16.09,1.801,21.506,0,27.336,0h45.327c15.076,0,27.351,12.018,27.351,26.793v46.398
				c0,14.775-12.274,26.808-27.351,26.808H50H27.351z"/>
		</g>
		<g>
		</g>
	</g>
</g>
</g></g><g transform="translate(1656,138) scale(2.07, 2.07)"><g transform="" style="fill: rgb(55, 104, 218);">
<g>
	<g id="XMLID_1_">
		<g>
			<path d="M27.351,100c-15.09,0-27.365-12.032-27.365-26.808V26.794c0-4.616,1.2-8.96,3.301-12.761
				c2.029-3.658,4.901-6.802,8.36-9.174C16.09,1.801,21.506,0,27.336,0h45.327c15.076,0,27.351,12.018,27.351,26.793v46.398
				c0,14.775-12.274,26.808-27.351,26.808H50H27.351z"/>
		</g>
		<g>
		</g>
	</g>
</g>
</g></g><g transform="translate(138,1656) scale(2.07, 2.07)"><g transform="" style="fill: rgb(55, 104, 218);">
<g>
	<g id="XMLID_1_">
		<g>
			<path d="M27.351,100c-15.09,0-27.365-12.032-27.365-26.808V26.794c0-4.616,1.2-8.96,3.301-12.761
				c2.029-3.658,4.901-6.802,8.36-9.174C16.09,1.801,21.506,0,27.336,0h45.327c15.076,0,27.351,12.018,27.351,26.793v46.398
				c0,14.775-12.274,26.808-27.351,26.808H50H27.351z"/>
		</g>
		<g>
		</g>
	</g>
</g>
</g></g></g></svg>